<svg xmlns="http://www.w3.org/2000/svg" viewBox="0 0 45.06 50"><defs><style>.cls-1{fill:#e9205d;}.cls-2{fill:#ee2956;}.cls-3{fill:#b12078;}.cls-4{fill:#782b90;}.cls-5{fill:#f9c915;}.cls-6{fill:#f8b01a;}.cls-7{fill:#f2663a;}</style></defs><title>Asset 4</title><g id="Layer_2" data-name="Layer 2"><g id="Isolation_Mode" data-name="Isolation Mode"><g id="Group_19" data-name="Group 19"><g id="Group_8" data-name="Group 8"><path id="Path_112" data-name="Path 112" class="cls-1" d="M20.7,20.25l.83-.61a5.13,5.13,0,0,0-2-1.79l-.69.71A10.06,10.06,0,0,1,20.7,20.25Z"/><path id="Path_113" data-name="Path 113" class="cls-1" d="M21,17.36l.83-.61a5.2,5.2,0,0,0-2-1.79l-.69.71A10.06,10.06,0,0,1,21,17.36Z"/><path id="Path_114" data-name="Path 114" class="cls-1" d="M20.54,21.41A40.15,40.15,0,0,1,19,25.16l.9.55c.7-.67,1.58-3.77,1.56-4Z"/><path id="Path_115" data-name="Path 115" class="cls-1" d="M26.3,24.74c-1.3,0-1.92-.23-2.06-.53v-1.1H27.9V20.82a6.3,6.3,0,0,0,1.38.9l.6-.69s-2.17-1.49-2.17-2H29.5v-.89H27.71V16.84h1.47V16H27.71V14.63H26.6V16H24.79V14.63H23.68V16H22.2v.88h1.48v1.32H21.87v.89H23.7c0,.49-2.28,2.13-2.28,2.13l.49,1a5.69,5.69,0,0,0,1.42-1v-.05h.06l-.06.05v3.81c0,.25,0,.54.55.54h4.21a1.19,1.19,0,0,0,1.36-1.1V23.3h-1C28.48,24.72,27.59,24.74,26.3,24.74Zm-1.51-7.9H26.6v1.32H24.79Zm0,2.21v-.2a.44.44,0,0,1,0,.2h1.8v0a2.35,2.35,0,0,0,.65,1.15H24.2a2.6,2.6,0,0,0,.6-1.15Zm-.59,2H27V22.4H24.2Z"/></g><g id="Group_9" data-name="Group 9"><path id="Path_112-2" data-name="Path 112-2" class="cls-1" d="M35.4,20.25l.83-.61a5.2,5.2,0,0,0-2-1.79l-.69.71A10.38,10.38,0,0,1,35.4,20.25Z"/><path id="Path_113-2" data-name="Path 113-2" class="cls-1" d="M35.68,17.36l.84-.61a5.2,5.2,0,0,0-2-1.79l-.69.71A10,10,0,0,1,35.68,17.36Z"/><path id="Path_114-2" data-name="Path 114-2" class="cls-1" d="M35.24,21.41a40.15,40.15,0,0,1-1.56,3.75l.9.55c.7-.67,1.58-3.77,1.56-4Z"/><path id="Path_115-2" data-name="Path 115-2" class="cls-1" d="M41,24.74c-1.3,0-1.92-.23-2.06-.53v-1.1h3.65V20.82a6.61,6.61,0,0,0,1.39.9l.59-.69s-2.16-1.49-2.16-2H44.2v-.89H42.41V16.84h1.47V16H42.41V14.63H41.3V16H39.49V14.63H38.38V16H36.9v.88h1.48v1.32H36.57v.89h1.82c0,.49-2.27,2.13-2.27,2.13l.49,1a5.69,5.69,0,0,0,1.42-1v-.05h.06l-.06.05v3.81c0,.25,0,.54.55.54h4.21a1.2,1.2,0,0,0,1.36-1.1V23.3h-1C43.17,24.72,42.29,24.74,41,24.74Zm-1.51-7.9H41.3v1.32H39.49Zm0,2.21v-.2a.44.44,0,0,1,0,.2h1.8a.38.38,0,0,1,0-.15v.15A2.28,2.28,0,0,0,42,20.2H38.9a2.6,2.6,0,0,0,.6-1.15Zm-.59,2h2.79V22.4H38.9Z"/></g><path id="Path_119" data-name="Path 119" class="cls-2" d="M11.73,5.75h3.63V4.66H10.73V3.52a23,23,0,0,0,3.76-.42l-.38-.81C13,2.67,6.87,3,5.73,3l.2.71s1.75,0,3.71-.11V4.66H4.9V5.75H8.65c-.48.81-2.89,1.67-3.9,2.11l.51.88a8.53,8.53,0,0,0,1.29-.53v5.25H7.63V12.7h5.16v.76h1.09V8.23a6.73,6.73,0,0,0,1.24.51l.51-.88C14.61,7.42,12.21,6.56,11.73,5.75ZM7,8c1.36-.78,2.61-1.81,2.61-2.2V8Zm5.76,3.84H7.63v-.88h5.16Zm0-1.79H7.63V8.86h5.16ZM10.73,8V5.75c0,.39,1.25,1.42,2.62,2.2Z"/><g id="Group_7" data-name="Group 7"><path id="Path_112-3" data-name="Path 112-3" class="cls-1" d="M6,20.25l.83-.61a5.18,5.18,0,0,0-2-1.79l-.7.71A9.76,9.76,0,0,1,6,20.25Z"/><path id="Path_113-3" data-name="Path 113-3" class="cls-1" d="M6.29,17.36l.83-.61a5.13,5.13,0,0,0-2-1.79l-.69.71A9.76,9.76,0,0,1,6.29,17.36Z"/><path id="Path_114-3" data-name="Path 114-3" class="cls-1" d="M5.84,21.41c-.1.55-1.42,3.46-1.55,3.75l.89.55c.7-.67,1.58-3.77,1.57-4Z"/><path id="Path_115-3" data-name="Path 115-3" class="cls-1" d="M11.6,24.74c-1.3,0-1.91-.23-2.06-.53v-1.1H13.2V20.82a6.37,6.37,0,0,0,1.39.9l.59-.69S13,19.54,13,19.05h1.8v-.89H13V16.84h1.47V16H13V14.63H11.9V16H10.09V14.63H9V16H7.5v.88H9v1.32H7.17v.89H9c0,.49-2.28,2.13-2.28,2.13l.49,1a5.69,5.69,0,0,0,1.42-1v-.05h.06l-.06.05v3.81c0,.25,0,.54.55.54h4.21a1.21,1.21,0,0,0,1.37-1.1V23.3h-1C13.78,24.72,12.9,24.74,11.6,24.74Zm-1.51-7.9H11.9v1.32H10.09Zm0,2.21v-.2a.65.65,0,0,1,0,.2H11.9v0a2.44,2.44,0,0,0,.65,1.15H9.5a2.63,2.63,0,0,0,.61-1.15Zm-.59,2h2.8V22.4H9.5Z"/></g><path id="Path_121" data-name="Path 121" class="cls-3" d="M14.08,34.58,13,34.17l-1.1,2.43h-1v-3h4.24V32.52H10.87V31.05h2.59v-.51a4.55,4.55,0,0,0,1.61.74l.6-.87s-4.51-1.85-4.78-3.52H9.76c-.51,1.15-3.14,3-5,3.7l.54.69A6.23,6.23,0,0,0,7,30.46v.59H9.65v1.47H5.38v1.07H9.65v3h-1l-1.1-2.43-1.1.41,1,2H5v1.06H15.46V36.6H13.12ZM7.59,30.13A8.75,8.75,0,0,0,10.21,28a12.32,12.32,0,0,0,2.62,2.17Z"/><g id="Group_10" data-name="Group 10"><path id="Path_117" data-name="Path 117" class="cls-4" d="M12.22,47.37a7.76,7.76,0,0,0,1.87-2.5V43.76H9.29c.14-.36.27-.73.39-1.09H15.5v-1.1H13.91l-3.9,0a11,11,0,0,0,.39-2.7H9.46a10.41,10.41,0,0,1-.57,2.7h-2a9.94,9.94,0,0,0,.74-2.34H6.53a18.74,18.74,0,0,1-.85,3.48H8.5c-1,2.62-2.52,5.51-3.81,6.16l.61.85c1-.41,2.35-2.27,3.39-4.49a11.38,11.38,0,0,0,1.75,2.19,13.08,13.08,0,0,1-3.28,1.72l.59.91a6.23,6.23,0,0,0,3.58-1.8A6.23,6.23,0,0,0,14.91,50l.59-.91A13.25,13.25,0,0,1,12.22,47.37Zm-2.55-2.5H13c-.08.48-.76,1.17-1.66,1.86C10.44,46,9.75,45.35,9.67,44.87Z"/><path id="Path_118" data-name="Path 118" class="cls-4" d="M14.67,40.92l-.76.64-2.19-2.08.86-.64Z"/></g><path id="Path_120" data-name="Path 120" class="cls-2" d="M26.43,5.75h3.62V4.66H25.43V3.52a23,23,0,0,0,3.76-.42l-.38-.81c-1.12.38-7.24.66-8.39.69l.21.71s1.75,0,3.71-.11V4.66H19.6V5.75h3.74c-.48.81-2.88,1.67-3.9,2.11l.52.88a8.53,8.53,0,0,0,1.29-.53v5.25h1.07V12.7h5.17v.76h1.08V8.23a7.36,7.36,0,0,0,1.24.51l.52-.88C29.31,7.42,26.91,6.56,26.43,5.75ZM21.72,8c1.37-.78,2.62-1.81,2.62-2.2V8Zm5.77,3.84H22.32v-.88h5.17Zm0-1.79H22.32V8.86h5.17ZM25.43,8V5.75c0,.39,1.25,1.42,2.61,2.2Z"/><path id="Path_122" data-name="Path 122" class="cls-3" d="M28.78,34.58l-1.1-.41-1.1,2.43h-1v-3H29.8V32.52H25.57V31.05h2.59v-.51a4.55,4.55,0,0,0,1.61.74l.59-.87s-4.5-1.85-4.77-3.52H24.46c-.52,1.15-3.14,3-5,3.7l.54.69a6.23,6.23,0,0,0,1.75-.82v.59h2.61v1.47H20.08v1.07h4.27v3h-1l-1.1-2.43-1.1.41,1,2H19.73v1.06H30.15V36.6H27.82Zm-6.49-4.45A8.75,8.75,0,0,0,24.91,28a12.19,12.19,0,0,0,2.61,2.17Z"/><g id="Group_11" data-name="Group 11"><path id="Path_117-2" data-name="Path 117-2" class="cls-4" d="M26.92,47.37a7.76,7.76,0,0,0,1.87-2.5V43.76H24c.14-.36.27-.73.39-1.09h5.81v-1.1H28.61l-3.9,0a11,11,0,0,0,.39-2.7h-1a10.31,10.31,0,0,1-.56,2.7h-2a9.86,9.86,0,0,0,.75-2.34H21.23a18.74,18.74,0,0,1-.85,3.48H23.2c-1,2.62-2.52,5.51-3.81,6.16l.61.85c1-.41,2.34-2.27,3.38-4.49a11.53,11.53,0,0,0,1.76,2.19,13.25,13.25,0,0,1-3.28,1.72l.59.91A6.23,6.23,0,0,0,26,48.2,6.23,6.23,0,0,0,29.61,50l.59-.91A13.08,13.08,0,0,1,26.92,47.37Zm-2.55-2.5h3.32c-.08.48-.77,1.17-1.66,1.86C25.13,46,24.45,45.35,24.37,44.87Z"/><path id="Path_118-2" data-name="Path 118-2" class="cls-4" d="M29.37,40.92l-.76.64-2.19-2.08.86-.64Z"/></g><path id="Path_123" data-name="Path 123" class="cls-2" d="M41.12,5.75h3.63V4.66H40.13V3.52a22.68,22.68,0,0,0,3.75-.42l-.38-.81c-1.11.38-7.24.66-8.38.69l.21.71s1.74,0,3.71-.11V4.66H34.29V5.75H38c-.48.81-2.88,1.67-3.9,2.11l.51.88A8.64,8.64,0,0,0,36,8.21v5.25H37V12.7h5.17v.76h1.08V8.23a7,7,0,0,0,1.24.51L45,7.86C44,7.42,41.6,6.56,41.12,5.75ZM36.42,8C37.79,7.17,39,6.14,39,5.75V8Zm5.77,3.84H37v-.88h5.17Zm0-1.79H37V8.86h5.17ZM40.13,8V5.75c0,.39,1.25,1.42,2.61,2.2Z"/><path id="Path_124" data-name="Path 124" class="cls-3" d="M43.48,34.58l-1.1-.41L41.27,36.6h-1v-3H44.5V32.52H40.27V31.05h2.58v-.51a4.63,4.63,0,0,0,1.61.74l.6-.87s-4.5-1.85-4.77-3.52H39.16c-.52,1.15-3.14,3-5,3.7l.54.69a6.36,6.36,0,0,0,1.75-.82v.59h2.61v1.47H34.78v1.07h4.27v3h-1L37,34.17l-1.11.41,1,2H34.42v1.06H44.85V36.6H42.52ZM37,30.13A8.54,8.54,0,0,0,39.6,28a12.6,12.6,0,0,0,2.62,2.17Z"/><g id="Group_12" data-name="Group 12"><path id="Path_117-3" data-name="Path 117-3" class="cls-4" d="M41.61,47.37a7.59,7.59,0,0,0,1.87-2.5V43.76H38.69c.14-.36.27-.73.39-1.09h5.81v-1.1H43.3l-3.89,0a11,11,0,0,0,.39-2.7h-.95a10.31,10.31,0,0,1-.56,2.7h-2a9.86,9.86,0,0,0,.75-2.34H35.93a18.74,18.74,0,0,1-.85,3.48h2.81c-1,2.62-2.51,5.51-3.8,6.16l.61.85c1-.41,2.34-2.27,3.38-4.49a11.14,11.14,0,0,0,1.76,2.19,13.25,13.25,0,0,1-3.28,1.72l.58.91a6.23,6.23,0,0,0,3.59-1.8A6.23,6.23,0,0,0,44.31,50l.58-.91A13.25,13.25,0,0,1,41.61,47.37Zm-2.55-2.5h3.33c-.08.48-.77,1.17-1.66,1.86C39.83,46,39.14,45.35,39.06,44.87Z"/><path id="Path_118-3" data-name="Path 118-3" class="cls-4" d="M44.07,40.92l-.77.64-2.18-2.08.86-.64Z"/></g><path id="Path_111" data-name="Path 111" class="cls-5" d="M7.62,3.46h3.63V2.37H6.63V1.23A22.68,22.68,0,0,0,10.38.81L10,0C8.89.38,2.76.66,1.62.69l.21.71s1.74,0,3.71-.11V2.37H.79V3.46H4.54c-.48.81-2.88,1.67-3.9,2.11l.51.88a8.64,8.64,0,0,0,1.3-.53v5.25H3.52v-.76H8.69v.76H9.77V5.94A7,7,0,0,0,11,6.45l.51-.88C10.51,5.13,8.1,4.27,7.62,3.46Zm-4.7,2.2c1.37-.78,2.62-1.81,2.62-2.2v2.2ZM8.69,9.5H3.52V8.62H8.69Zm0-1.79H3.52V6.57H8.69Zm-2.06-2V3.46c0,.39,1.25,1.42,2.61,2.2Z"/><g id="Group_5" data-name="Group 5"><path id="Path_112-4" data-name="Path 112-4" class="cls-6" d="M1.9,18l.83-.61a5.2,5.2,0,0,0-2-1.79l-.69.7A10.82,10.82,0,0,1,1.9,18Z"/><path id="Path_113-4" data-name="Path 113-4" class="cls-6" d="M2.18,15.07,3,14.46a5.2,5.2,0,0,0-2-1.79l-.69.7A10.42,10.42,0,0,1,2.18,15.07Z"/><path id="Path_114-4" data-name="Path 114-4" class="cls-6" d="M1.74,19.12A40.15,40.15,0,0,1,.18,22.87l.9.55c.7-.67,1.58-3.77,1.56-4Z"/><path id="Path_115-4" data-name="Path 115-4" class="cls-6" d="M7.5,22.45c-1.3,0-1.92-.23-2.06-.53v-1.1H9.1V18.53a6.3,6.3,0,0,0,1.38.9l.59-.69s-2.16-1.49-2.16-2H10.7v-.89H8.91V14.55h1.47v-.89H8.91V12.34H7.8v1.32H6V12.34H4.88v1.32H3.4v.89H4.88v1.32H3.07v.89H4.89c0,.49-2.27,2.13-2.27,2.13l.49,1a6,6,0,0,0,1.42-1v-.06h.06l-.06.06v3.81c0,.25,0,.54.55.54H9.29a1.2,1.2,0,0,0,1.36-1.1V21h-1C9.67,22.43,8.79,22.45,7.5,22.45ZM6,14.55H7.8v1.32H6Zm0,2.21v-.2a.44.44,0,0,1,0,.2H7.8a.38.38,0,0,1,0-.15v.15a2.28,2.28,0,0,0,.65,1.15h-3A2.6,2.6,0,0,0,6,16.76Zm-.59,2H8.19v1.33H5.4Z"/></g><path id="Path_116" data-name="Path 116" class="cls-7" d="M10,32.29l-1.1-.41L7.77,34.31h-1v-3H11V30.23H6.77V28.76H9.35v-.51A4.63,4.63,0,0,0,11,29l.6-.87s-4.5-1.85-4.77-3.52H5.66c-.52,1.15-3.14,3-5,3.7l.54.69a6.36,6.36,0,0,0,1.75-.82v.59H5.55v1.47H1.28V31.3H5.55v3h-1l-1.1-2.43-1.11.41,1,2H.93v1.06H11.35V34.31H9ZM3.49,27.84A8.54,8.54,0,0,0,6.1,25.67a12.6,12.6,0,0,0,2.62,2.17Z"/><g id="Group_6" data-name="Group 6"><path id="Path_117-4" data-name="Path 117-4" class="cls-2" d="M8.11,45.08A7.59,7.59,0,0,0,10,42.58V41.47H5.19c.14-.36.27-.73.39-1.09h5.81v-1.1H9.8l-3.89,0a11,11,0,0,0,.39-2.7h-1a10.31,10.31,0,0,1-.56,2.7h-2a9.86,9.86,0,0,0,.75-2.34H2.43a18.74,18.74,0,0,1-.85,3.48H4.39c-1,2.61-2.51,5.51-3.8,6.16l.61.85c1-.41,2.34-2.27,3.38-4.49a11.14,11.14,0,0,0,1.76,2.19A13.25,13.25,0,0,1,3.06,46.8l.58.91a6.29,6.29,0,0,0,3.59-1.8,6.3,6.3,0,0,0,3.58,1.8l.58-.91A13.25,13.25,0,0,1,8.11,45.08Zm-2.55-2.5H8.89c-.08.47-.77,1.17-1.66,1.86C6.33,43.75,5.64,43.05,5.56,42.58Z"/><path id="Path_118-4" data-name="Path 118-4" class="cls-2" d="M10.57,38.63l-.77.64L7.62,37.19l.86-.64Z"/></g><path id="Path_111-2" data-name="Path 111-2" class="cls-5" d="M22.32,3.46H26V2.37H21.33V1.23A22.68,22.68,0,0,0,25.08.81L24.7,0c-1.12.38-7.24.66-8.38.69l.2.71s1.75,0,3.71-.11V2.37H15.49V3.46h3.75c-.48.81-2.88,1.67-3.9,2.11l.51.88a8.12,8.12,0,0,0,1.29-.53v5.25h1.08v-.76h5.16v.76h1.09V5.94a7,7,0,0,0,1.24.51l.51-.88C25.21,5.13,22.8,4.27,22.32,3.46Zm-4.7,2.2c1.37-.78,2.61-1.81,2.61-2.2v2.2ZM23.38,9.5H18.22V8.62h5.16Zm0-1.79H18.22V6.57h5.16Zm-2.05-2V3.46c0,.39,1.25,1.42,2.61,2.2Z"/><g id="Group_5-2" data-name="Group 5-2"><path id="Path_112-5" data-name="Path 112-5" class="cls-6" d="M16.59,18l.84-.61a5.2,5.2,0,0,0-2-1.79l-.69.7A10.42,10.42,0,0,1,16.59,18Z"/><path id="Path_113-5" data-name="Path 113-5" class="cls-6" d="M16.88,15.07l.83-.61a5.11,5.11,0,0,0-2-1.79l-.69.7A10.42,10.42,0,0,1,16.88,15.07Z"/><path id="Path_114-5" data-name="Path 114-5" class="cls-6" d="M16.44,19.12c-.11.55-1.43,3.46-1.56,3.75l.89.55c.71-.67,1.59-3.77,1.57-4Z"/><path id="Path_115-5" data-name="Path 115-5" class="cls-6" d="M22.19,22.45c-1.29,0-1.91-.23-2.06-.53v-1.1h3.66V18.53a6.37,6.37,0,0,0,1.39.9l.59-.69s-2.16-1.49-2.16-2H25.4v-.89H23.61V14.55h1.46v-.89H23.61V12.34H22.5v1.32H20.69V12.34H19.58v1.32H18.09v.89h1.49v1.32H17.77v.89h1.82c0,.49-2.27,2.13-2.27,2.13l.49,1a6.16,6.16,0,0,0,1.42-1v-.06h.06l-.06.06v3.81c0,.25,0,.54.54.54H24a1.2,1.2,0,0,0,1.36-1.1V21h-1C24.37,22.43,23.49,22.45,22.19,22.45Zm-1.5-7.9H22.5v1.32H20.69Zm0,2.21v-.2a.66.66,0,0,1,0,.2h1.8a.38.38,0,0,1,0-.15v.15a2.32,2.32,0,0,0,.64,1.15h-3a2.6,2.6,0,0,0,.6-1.15Zm-.59,2h2.79v1.33H20.1Z"/></g><path id="Path_116-2" data-name="Path 116-2" class="cls-7" d="M24.68,32.29l-1.11-.41-1.1,2.43h-1v-3H25.7V30.23H21.47V28.76h2.58v-.51a4.55,4.55,0,0,0,1.61.74l.6-.87s-4.5-1.85-4.78-3.52H20.36c-.52,1.15-3.15,3-5,3.7l.55.69a6.36,6.36,0,0,0,1.75-.82v.59h2.61v1.47H16V31.3h4.28v3h-1l-1.11-2.43-1.1.41,1,2H15.62v1.06H26.05V34.31H23.72Zm-6.49-4.45a8.54,8.54,0,0,0,2.61-2.17,12.32,12.32,0,0,0,2.62,2.17Z"/><g id="Group_6-2" data-name="Group 6-2"><path id="Path_117-5" data-name="Path 117-5" class="cls-2" d="M22.81,45.08a7.59,7.59,0,0,0,1.87-2.5V41.47H19.89c.14-.36.27-.73.39-1.09h5.81v-1.1H24.5l-3.89,0a11.49,11.49,0,0,0,.39-2.7h-.95a10,10,0,0,1-.57,2.7h-2a9.49,9.49,0,0,0,.74-2.34H17.13a18.56,18.56,0,0,1-.86,3.48h2.82c-1,2.61-2.51,5.51-3.81,6.16l.62.85c1-.41,2.34-2.27,3.38-4.49A11.14,11.14,0,0,0,21,45.08a13.25,13.25,0,0,1-3.28,1.72l.58.91a6.32,6.32,0,0,0,3.59-1.8,6.27,6.27,0,0,0,3.58,1.8l.58-.91A13.25,13.25,0,0,1,22.81,45.08Zm-2.55-2.5h3.33c-.08.47-.77,1.17-1.67,1.86C21,43.75,20.34,43.05,20.26,42.58Z"/><path id="Path_118-5" data-name="Path 118-5" class="cls-2" d="M25.26,38.63l-.76.64-2.18-2.08.85-.64Z"/></g><path id="Path_111-3" data-name="Path 111-3" class="cls-5" d="M37,3.46h3.63V2.37H36V1.23A23,23,0,0,0,39.78.81L39.4,0C38.28.38,32.16.66,31,.69l.2.71s1.75,0,3.71-.11V2.37H30.19V3.46h3.75c-.48.81-2.89,1.67-3.9,2.11l.51.88a8.12,8.12,0,0,0,1.29-.53v5.25h1.08v-.76h5.16v.76h1.09V5.94a7,7,0,0,0,1.24.51l.51-.88C39.9,5.13,37.5,4.27,37,3.46Zm-4.7,2.2c1.36-.78,2.61-1.81,2.61-2.2v2.2ZM38.08,9.5H32.92V8.62h5.16Zm0-1.79H32.92V6.57h5.16ZM36,5.66V3.46c0,.39,1.25,1.42,2.62,2.2Z"/><g id="Group_5-3" data-name="Group 5-3"><path id="Path_112-6" data-name="Path 112-6" class="cls-6" d="M31.29,18l.83-.61a5.11,5.11,0,0,0-2-1.79l-.69.7A10.42,10.42,0,0,1,31.29,18Z"/><path id="Path_113-6" data-name="Path 113-6" class="cls-6" d="M31.58,15.07l.83-.61a5.18,5.18,0,0,0-2-1.79l-.7.7A10.16,10.16,0,0,1,31.58,15.07Z"/><path id="Path_114-6" data-name="Path 114-6" class="cls-6" d="M31.14,19.12c-.11.55-1.43,3.46-1.56,3.75l.89.55c.7-.67,1.59-3.77,1.57-4Z"/><path id="Path_115-6" data-name="Path 115-6" class="cls-6" d="M36.89,22.45c-1.29,0-1.91-.23-2.06-.53v-1.1h3.66V18.53a6.37,6.37,0,0,0,1.39.9l.59-.69s-2.17-1.49-2.17-2h1.8v-.89H38.3V14.55h1.47v-.89H38.3V12.34H37.19v1.32h-1.8V12.34H34.28v1.32H32.79v.89h1.49v1.32H32.46v.89h1.83c0,.49-2.28,2.13-2.28,2.13l.5,1a6.38,6.38,0,0,0,1.42-1v-.06H34l-.06.06v3.81c0,.25,0,.54.54.54h4.21a1.21,1.21,0,0,0,1.37-1.1V21h-1C39.07,22.43,38.19,22.45,36.89,22.45Zm-1.5-7.9h1.8v1.32h-1.8Zm0,2.21v-.2a.66.66,0,0,1,0,.2h1.79v0a2.44,2.44,0,0,0,.65,1.15h-3a2.71,2.71,0,0,0,.6-1.15Zm-.59,2h2.79v1.33H34.8Z"/></g><path id="Path_116-3" data-name="Path 116-3" class="cls-7" d="M39.37,32.29l-1.1-.41-1.1,2.43h-1v-3H40.4V30.23H36.16V28.76h2.59v-.51a4.55,4.55,0,0,0,1.61.74l.6-.87s-4.51-1.85-4.78-3.52H35.05c-.51,1.15-3.14,3-5,3.7l.55.69a6.36,6.36,0,0,0,1.75-.82v.59h2.6v1.47H30.67V31.3h4.27v3H34l-1.1-2.43-1.1.41,1,2H30.32v1.06H40.75V34.31H38.41Zm-6.49-4.45a8.61,8.61,0,0,0,2.62-2.17,12.32,12.32,0,0,0,2.62,2.17Z"/><g id="Group_6-3" data-name="Group 6-3"><path id="Path_117-6" data-name="Path 117-6" class="cls-2" d="M37.51,45.08a7.76,7.76,0,0,0,1.87-2.5V41.47h-4.8c.15-.36.28-.73.4-1.09h5.81v-1.1H39.2l-3.9,0a11,11,0,0,0,.4-2.7h-1a10.41,10.41,0,0,1-.57,2.7h-2a9.94,9.94,0,0,0,.74-2.34H31.82A18.74,18.74,0,0,1,31,40.37h2.82c-1,2.61-2.52,5.51-3.81,6.16l.62.85c1-.41,2.34-2.27,3.38-4.49a11.14,11.14,0,0,0,1.76,2.19,13.25,13.25,0,0,1-3.28,1.72l.58.91a6.3,6.3,0,0,0,3.58-1.8,6.29,6.29,0,0,0,3.59,1.8l.58-.91A13.25,13.25,0,0,1,37.51,45.08ZM35,42.58h3.33a4.46,4.46,0,0,1-1.67,1.86C35.73,43.75,35,43.05,35,42.58Z"/><path id="Path_118-6" data-name="Path 118-6" class="cls-2" d="M40,38.63l-.76.64L37,37.19l.85-.64Z"/></g></g></g></g></svg>