<svg xmlns="http://www.w3.org/2000/svg" viewBox="0 0 41.02 50"><defs><style>.cls-1{fill:#f9c915;}.cls-2{fill:#241633;}.cls-3{fill:#ee2956;}.cls-4{fill:#782b90;}.cls-5{fill:#5ec7d3;}.cls-6{fill:#f2663a;}</style></defs><title>Asset 7</title><g id="Layer_2" data-name="Layer 2"><g id="Isolation_Mode" data-name="Isolation Mode"><polygon class="cls-1" points="21.21 50 0 40.5 0 3.74 21.21 0 21.21 50"/><polygon class="cls-2" points="19.04 45.26 1.23 38.15 1.23 6.42 19.04 4.15 19.04 45.26"/><polygon class="cls-1" points="2.7 9.43 17.09 8.33 17.09 40.84 2.7 35.78 2.7 9.43"/><polygon class="cls-3" points="15.81 38.43 3.9 34.55 3.9 15.06 15.81 15.24 15.81 38.43"/><polygon class="cls-4" points="17.09 8.04 2.7 9.19 2.7 12.61 17.09 12.26 17.09 8.04"/><path class="cls-1" d="M5.46,10.36v.41l.42,0V11l-.42,0v.56H5.27v-1.4l.63,0v.21Z"/><path class="cls-1" d="M6.76,11.5c-.1,0-.21,0-.24-.11a.24.24,0,0,1-.21.13q-.24,0-.24-.3a.3.3,0,0,1,.32-.34h.12v-.12c0-.12-.06-.14-.17-.14a.53.53,0,0,0-.19.06l0-.2a.65.65,0,0,1,.27-.09c.16,0,.32,0,.32.3v.55s0,.06.06.07ZM6.51,11H6.4c-.13,0-.15.08-.15.15s0,.13.1.12a.34.34,0,0,0,.16-.07Z"/><path class="cls-1" d="M7.43,11.46l-.26-.56v.57H7V10h.19v.91l.27-.5h.22l-.29.5.3.61Z"/><path class="cls-1" d="M8,11c0,.22.11.24.23.24a1.29,1.29,0,0,0,.24-.05l0,.22a.84.84,0,0,1-.3.06c-.24,0-.4-.1-.4-.54s.15-.62.38-.63.32.22.32.57V11Zm.16-.49c-.09,0-.14.09-.15.29h.28C8.33,10.57,8.29,10.49,8.2,10.49Z"/><path class="cls-1" d="M9.08,11.41a.68.68,0,0,1-.31,0V9.84H9v.47a.27.27,0,0,1,.17-.07c.23,0,.35.14.35.53S9.31,11.4,9.08,11.41Zm0-1a.4.4,0,0,0-.13,0v.69h.11c.14,0,.19-.18.19-.41S9.26,10.44,9.11,10.45Z"/><path class="cls-1" d="M10.07,11.38c-.27,0-.38-.2-.38-.57s.13-.62.39-.64.38.21.38.59S10.33,11.37,10.07,11.38Zm0-1c-.15,0-.17.19-.17.39s0,.37.17.36.16-.17.16-.38S10.23,10.39,10.08,10.4Z"/><path class="cls-1" d="M11.05,11.34c-.28,0-.38-.21-.38-.58s.13-.63.4-.64.38.2.38.59S11.32,11.33,11.05,11.34Zm0-1c-.15,0-.17.2-.17.4s0,.38.17.37.17-.17.17-.39S11.22,10.34,11.06,10.34Z"/><path class="cls-1" d="M12.24,11.27l-.3-.61v.62h-.23V9.65h.23v1l.31-.54.25,0-.33.55.34.65Z"/><path class="cls-1" d="M12.94,10.75c0,.24.12.26.26.25l.28,0,0,.23a1.26,1.26,0,0,1-.34.07c-.28,0-.46-.12-.46-.59s.17-.66.44-.67.37.23.37.61v.11Zm.19-.53c-.11,0-.17.11-.18.32l.33,0C13.28,10.31,13.23,10.22,13.13,10.22Z"/><path class="cls-1" d="M14.64,10.22a.32.32,0,0,0-.17,0,.32.32,0,0,0-.24.14V11l.34,0v.25l-.81,0V11H14V10.2h-.23V10l.47,0v.17a.35.35,0,0,1,.29-.21.32.32,0,0,1,.17,0Z"/><path class="cls-5" d="M5.12,17.4V17H5v.41H4.9v-1H5v.4h.14v-.41h.09v1Z"/><path class="cls-5" d="M5.61,17.43a.09.09,0,0,1-.1-.09s0,.09-.1.08-.12-.07-.12-.22.09-.21.15-.21H5.5v-.08c0-.08,0-.1-.08-.1l-.09,0V16.7a.17.17,0,0,1,.12-.05c.07,0,.15,0,.15.22v.37s0,.05,0,.05ZM5.5,17.1h0c-.06,0-.07,0-.07.1s0,.08,0,.08.06,0,.08,0Z"/><path class="cls-5" d="M5.81,17.43v-.17H5.9v.17Zm.08-.27H5.82v-.69H5.9v.69Z"/><path class="cls-5" d="M6.68,17.79H6.59l0-.3h0l-.11-.77h.09l.08.61h0l.09-.61h.09Z"/><path class="cls-5" d="M7.09,17.51c-.15,0-.16-.23-.16-.5s0-.51.17-.51.16.27.16.5S7.24,17.52,7.09,17.51Zm0-.85C7,16.65,7,16.75,7,17s0,.35.07.35.08-.12.08-.36S7.16,16.66,7.1,16.66Zm0,.42,0-.07,0-.08,0,.08Z"/><path class="cls-5" d="M7.59,17.53v-.09s-.06.1-.12.1-.11-.15-.11-.31v-.48h.09v.47c0,.11,0,.15,0,.16s.07,0,.09-.06v-.56h.09v.77Z"/><path class="cls-5" d="M8.13,17l-.07,0S8,17,8,17v.39H8.1v.15H7.78v-.16h.09v-.48H7.78v-.14H8v.1s0-.11.11-.11.05,0,.07,0Z"/><path class="cls-5" d="M8.8,17.6a.21.21,0,0,1-.14,0v-.15l.12,0c.07,0,.1,0,.1-.08s-.22-.06-.22-.35.08-.23.17-.23a.21.21,0,0,1,.13.05L9,17l-.11,0a.07.07,0,0,0-.08.07c0,.14.23.09.23.36S8.87,17.6,8.8,17.6Z"/><path class="cls-5" d="M9.1,17.6v-.15h.12v-.66l-.12,0v-.13l.22-.11v.88h.12v.16Z"/><path class="cls-5" d="M9.79,17.65c-.07,0-.17,0-.17-.25V17H9.53v-.14h.09v-.16h.1v.16H9.9V17H9.72v.4c0,.08,0,.1.07.1l.11,0v.15A.17.17,0,0,1,9.79,17.65Z"/><path class="cls-5" d="M10.11,17.33c0,.16.05.18.11.18l.12,0,0,.15a.24.24,0,0,1-.15,0c-.13,0-.2-.09-.2-.4s.07-.43.19-.43.16.18.16.43v.07Zm.08-.34s-.07.06-.08.2h.14Q10.25,17,10.19,17Z"/><path class="cls-5" d="M10.94,17.7v-.16h.13v-.68l-.13,0v-.14l.23-.12v.91h.13v.17Z"/><path class="cls-5" d="M11.57,17.74a.24.24,0,0,1-.15,0v-.15l.13,0c.07,0,.11,0,.11-.07s-.25-.07-.25-.38c0-.16.1-.23.19-.23a.24.24,0,0,1,.14.05l0,.14a.24.24,0,0,0-.12,0s-.08,0-.08.07.25.09.25.37S11.64,17.75,11.57,17.74Z"/><path class="cls-5" d="M12.65,17.79v-.08a.13.13,0,0,1-.11.08c-.08,0-.17-.08-.17-.44s.08-.42.21-.42l.07,0v-.31h.1v1.14Zm0-.68-.07,0c-.08,0-.1.12-.1.27s0,.26.09.26,0,0,.08,0Z"/><path class="cls-5" d="M13.06,17.82c-.18,0-.19-.26-.19-.54s0-.57.21-.56.19.29.19.54S13.24,17.83,13.06,17.82Zm0-.93c-.07,0-.09.1-.09.39s0,.38.09.38.09-.13.09-.39S13.14,16.89,13.07,16.89Zm0,.46L13,17.27l.05-.08,0,.08Z"/><path class="cls-5" d="M13.74,17.84h-.13l0-.51h0l-.06.5h-.12l0-.83h.1l0,.68h0l.06-.47h.09l0,.47h0l0-.68h.1Z"/><path class="cls-5" d="M14.17,17.86v-.51c0-.13,0-.17-.07-.18a.14.14,0,0,0-.1.07v.62h-.11V17H14v.09s.07-.11.14-.11.14.17.14.34v.54Z"/><path class="cls-5" d="M7.71,19.24a.25.25,0,0,1-.15-.06l0-.15a.26.26,0,0,0,.12,0s.09,0,.09-.12-.23-.15-.23-.49c0-.19.08-.25.17-.25a.23.23,0,0,1,.13.06l0,.14a.18.18,0,0,0-.1,0s-.07,0-.07.09.23.17.23.49S7.82,19.25,7.71,19.24Z"/><path class="cls-5" d="M8.16,19.28c-.12,0-.17-.17-.17-.41s.06-.41.18-.4.17.16.17.41S8.28,19.28,8.16,19.28Zm0-.66c-.07,0-.08.11-.08.25s0,.25.08.25.07-.1.07-.24S8.23,18.62,8.17,18.62Z"/><path class="cls-5" d="M8.79,18.7s0,0-.07,0a.14.14,0,0,0-.1.07v.4h.14v.16l-.33,0v-.15h.09v-.48H8.43V18.5h.19v.11c0-.05.05-.12.12-.11s0,0,.07,0Z"/><path class="cls-5" d="M9.23,18.73a.15.15,0,0,0-.07,0s-.07,0-.09.07v.4h.14v.16l-.34,0v-.15H9v-.49h-.1v-.14h.2v.11s0-.12.12-.11a.09.09,0,0,1,.06,0Z"/><path class="cls-5" d="M9.5,19.68H9.41l.05-.31h0l-.12-.8h.11l.08.64h0l.1-.63h.1Z"/><path class="cls-5" d="M10.36,18.83v-.2h.11v.2Zm0,.6v-.2h.11v.2Z"/><path class="cls-5" d="M10.77,19.79l0-.14a.88.88,0,0,0,.2-.6.83.83,0,0,0-.2-.59l0-.14a.93.93,0,0,1,.26.74A.89.89,0,0,1,10.77,19.79Z"/><path class="cls-5" d="M7.62,20.91v-.53c0-.08,0-.14,0-.14s0,0,0,0v.62H7.48v-.54c0-.07,0-.12,0-.12s0,0,0,.05v.61H7.34v-.77h.08v.08s0-.09.07-.09,0,0,.06.1,0-.09.07-.09.08.1.08.24v.56Z"/><path class="cls-5" d="M8.12,21a.11.11,0,0,1-.11-.1A.14.14,0,0,1,7.9,21q-.12,0-.12-.24c0-.19.09-.22.16-.21H8v-.08c0-.09,0-.11-.08-.11l-.1,0,0-.14a.18.18,0,0,1,.13,0c.08,0,.16,0,.16.24v.38s0,.05,0,.05ZM8,20.61H8c-.07,0-.08.05-.08.1s0,.09,0,.09.06,0,.08,0Z"/><path class="cls-5" d="M8.39,21.3H8.3l0-.31h0l-.11-.79h.1l.08.63h0l.1-.61h.09Z"/><path class="cls-5" d="M8.81,21A.27.27,0,0,1,8.66,21v-1h.1v.33a.09.09,0,0,1,.08,0c.11,0,.16.13.16.39S8.91,21.05,8.81,21Zm0-.66-.06,0v.47l.05,0c.06,0,.09-.11.09-.27S8.89,20.39,8.82,20.38Z"/><path class="cls-5" d="M9.2,20.75c0,.15.05.17.11.18h.12v.15a.22.22,0,0,1-.14,0c-.12,0-.2-.1-.2-.41s.07-.42.19-.41.15.18.15.43v.07Zm.08-.33s-.07,0-.08.19h.14C9.34,20.49,9.32,20.42,9.28,20.42Z"/><path class="cls-5" d="M10.19,21.49h-.1l.05-.31h0L10,20.35h.1l.08.65h0l.1-.63h.1Z"/><path class="cls-5" d="M10.64,21.23c-.13,0-.18-.17-.18-.43s.06-.42.19-.41.18.18.18.44S10.77,21.25,10.64,21.23Zm0-.68c-.07,0-.08.12-.08.26s0,.26.08.27.07-.11.07-.26S10.72,20.56,10.65,20.55Z"/><path class="cls-5" d="M11.19,21.27v-.08s-.06.09-.12.09-.13-.16-.13-.33v-.51H11v.49c0,.12,0,.17.06.17a.11.11,0,0,0,.09-.06v-.59h.11v.81Z"/><path class="cls-5" d="M6.45,22.46a.29.29,0,0,1-.14-.05l0-.14a.3.3,0,0,0,.11,0q.09,0,.09-.06c0-.12-.21-.08-.21-.36s.08-.22.16-.21a.22.22,0,0,1,.12.05v.14a.25.25,0,0,0-.11,0,.06.06,0,0,0-.07.06c0,.13.21.1.21.36S6.51,22.47,6.45,22.46Z"/><path class="cls-5" d="M7,22.51v-.46c0-.11,0-.16,0-.16s-.06,0-.08.05v.56l-.09,0v-1h.09v.37s0-.1.11-.09S7,21.88,7,22v.48Z"/><path class="cls-5" d="M7.3,22.57c-.12,0-.16-.16-.16-.41s.05-.4.17-.38.16.16.16.42S7.41,22.59,7.3,22.57Zm0-.65c-.07,0-.08.12-.08.25s0,.25.08.25.07-.1.07-.24S7.37,21.93,7.31,21.92Z"/><path class="cls-5" d="M7.8,22.62v-.08s-.06.09-.11.08-.12-.15-.12-.31v-.49h.1v.47c0,.11,0,.16,0,.17s.06,0,.08-.06v-.56h.09v.77Z"/><path class="cls-5" d="M8,22.65v-.16l.13,0v-.78H8v-.14l.21,0v.92l.13,0v.15Z"/><path class="cls-5" d="M8.67,22.73v-.07s-.05.08-.09.07-.15-.08-.15-.42.07-.4.18-.39l.06,0v-.29h.1v1.08Zm0-.64-.05,0c-.08,0-.1.11-.1.25s0,.25.08.25.05,0,.07,0Z"/><path class="cls-5" d="M9.12,22.79v-.48c0-.12,0-.16-.06-.17A.1.1,0,0,0,9,22.2v.57h-.1V22H9v.08s0-.1.11-.09.13.16.13.32v.5Z"/><path class="cls-5" d="M9.52,22.15H9.43a.74.74,0,0,0,0-.19v-.21h.1v.15A.72.72,0,0,1,9.52,22.15Z"/><path class="cls-5" d="M10,22.92c-.08,0-.17,0-.17-.27v-.42H9.76v-.14h.09v-.17l.1,0v.16l.18,0v.15l-.18,0v.4c0,.08,0,.1.07.11l.11,0v.16Z"/><path class="cls-5" d="M11,23v-.49c0-.12,0-.16-.06-.17a.13.13,0,0,0-.09.05V23l-.11,0V21.88h.11v.39s.06-.1.12-.09.13.17.13.33V23Z"/><path class="cls-5" d="M11.55,23.11c-.05,0-.12,0-.13-.11s-.05.09-.11.08-.14-.1-.14-.25.1-.23.18-.22h.06v-.08c0-.09,0-.11-.09-.12a.16.16,0,0,0-.1,0l0-.15a.22.22,0,0,1,.15,0c.09,0,.18.05.18.26v.4s0,.05,0,.06Zm-.14-.38h-.06c-.07,0-.08,0-.08.1s0,.09.05.1a.19.19,0,0,0,.09,0Z"/><path class="cls-5" d="M11.9,23.14h-.14l-.13-.84.11,0,.07.53,0,.16h0l0-.16.09-.51h.11Z"/><path class="cls-5" d="M12.25,22.85c0,.17.05.19.11.2h.13l0,.16a.39.39,0,0,1-.16,0c-.13,0-.21-.12-.21-.44s.07-.44.2-.42.17.19.17.45v.07Zm.08-.34c-.05,0-.08,0-.08.2l.15,0C12.4,22.58,12.38,22.52,12.33,22.51Z"/><path class="cls-5" d="M7.73,24.31l-.16,0v-1l.14,0c.11,0,.17.1.17.28s0,.18-.07.19h0A.31.31,0,0,1,7.9,24C7.9,24.21,7.86,24.32,7.73,24.31Zm0-.86h0v.27h0s.07,0,.07-.13S7.76,23.46,7.7,23.45Zm0,.41h0v.29h0s.08,0,.08-.13S7.77,23.87,7.7,23.86Z"/><path class="cls-5" d="M8.1,24c0,.16,0,.18.1.19h.12v.14a.22.22,0,0,1-.14,0c-.12,0-.19-.11-.19-.42s.07-.41.18-.39.15.19.15.43v.07Zm.07-.32s-.07.05-.07.19l.13,0C8.23,23.79,8.21,23.73,8.17,23.72Z"/><path class="cls-5" d="M8.53,24.11c0,.15.05.18.11.19h.12v.15a.32.32,0,0,1-.14,0c-.12,0-.2-.12-.2-.42s.07-.41.19-.4.15.19.15.43v.07Zm.08-.32s-.07.05-.07.18l.13,0C8.67,23.86,8.65,23.79,8.61,23.79Z"/><path class="cls-5" d="M9.12,24.52V24c0-.12,0-.16-.06-.17s-.07,0-.08.05v.58l-.1,0V23.7H9v.08s0-.09.11-.08.13.16.13.32v.5Z"/><path class="cls-5" d="M10,24.67c-.08,0-.17,0-.17-.27V24H9.76v-.15h.09v-.16l.1,0v.16l.18,0V24L10,24v.41c0,.08,0,.1.07.11h.11v.15A.16.16,0,0,1,10,24.67Z"/><path class="cls-5" d="M10.49,24.73v-.49c0-.12,0-.17-.06-.17s-.07,0-.09.05v.59l-.1,0v-1.1h.1V24s.06-.1.12-.09.13.17.13.33v.51Z"/><path class="cls-5" d="M10.81,24.44c0,.17,0,.19.11.2H11l0,.15a.24.24,0,0,1-.15,0c-.13,0-.21-.11-.21-.43s.08-.42.2-.41.16.2.16.45v.07Zm.08-.33c-.05,0-.08.05-.08.2l.14,0C11,24.19,10.93,24.12,10.89,24.11Z"/><path class="cls-5" d="M7,25.87c-.07,0-.16,0-.16-.26v-.4H6.71v-.14h.08v-.15h.09v.16l.17,0v.14l-.17,0v.39c0,.07,0,.09.07.1h.1v.15A.21.21,0,0,1,7,25.87Z"/><path class="cls-5" d="M7.48,26a.12.12,0,0,1-.12-.11.08.08,0,0,1-.1.07q-.12,0-.12-.24c0-.19.09-.21.16-.2h.06v-.08c0-.09,0-.11-.09-.12l-.09,0,0-.15a.24.24,0,0,1,.13,0c.08,0,.16.05.16.24v.38s0,0,0,.06Zm-.12-.36H7.3c-.06,0-.07,0-.07.09s0,.09,0,.09.06,0,.08,0Z"/><path class="cls-5" d="M7.91,25.43a.09.09,0,0,0-.06,0,.1.1,0,0,0-.1.06v.39l.14,0V26L7.56,26v-.15h.1v-.47l-.1,0V25.2l.19,0v.1s0-.11.12-.09,0,0,.06,0Z"/><path class="cls-5" d="M8.16,26.39A.37.37,0,0,1,8,26.33v-.15l.11.05c.06,0,.09,0,.09-.14V26a.07.07,0,0,1-.07.05c-.08,0-.17-.08-.17-.43s.08-.39.19-.37a.37.37,0,0,1,.15.05v.79C8.33,26.34,8.25,26.41,8.16,26.39Zm.07-.93-.05,0c-.08,0-.09.09-.09.24s0,.25.08.26a.06.06,0,0,0,.06,0Z"/><path class="cls-5" d="M8.53,25.82c0,.16.05.18.11.19h.12v.15a.22.22,0,0,1-.14,0c-.12,0-.2-.12-.2-.42s.07-.41.19-.39.15.19.15.43v.07Zm.08-.32s-.07.05-.07.19l.13,0C8.67,25.57,8.65,25.51,8.61,25.5Z"/><path class="cls-5" d="M9.12,26.26C9,26.25,9,26.23,9,26v-.42H8.86v-.14H9v-.16l.1,0v.16l.17,0v.14l-.17,0V26c0,.08,0,.1.06.11h.11v.15A.15.15,0,0,1,9.12,26.26Z"/><path class="cls-5" d="M9.77,26.36V26.2l.13,0v-.8l-.12,0v-.14l.22,0v.95l.14,0v.16Z"/><path class="cls-5" d="M10.25,26.45v-.16l.13,0v-.49l-.12,0v-.15l.22,0v.64l.13,0v.16Zm.18-.88-.07-.15.07-.13.08.15Z"/><path class="cls-5" d="M11,26.57l-.14-.44v.42l-.1,0V25.42l.1,0v.66l.14-.33.12,0-.15.33.15.48Z"/><path class="cls-5" d="M11.28,26.3c0,.16.05.19.12.2h.12l0,.15a.28.28,0,0,1-.16,0c-.12,0-.21-.12-.21-.44s.08-.42.2-.4.17.2.17.45v.07Zm.08-.33s-.07.05-.08.19l.15,0C11.43,26,11.41,26,11.36,26Z"/><path class="cls-5" d="M6.4,27.42l-.1,0,0-.46h0l0,.44-.09,0,0-.76.08,0,0,.61h0l.05-.41.07,0,0,.42h0l0-.6h.08Z"/><path class="cls-5" d="M6.61,27.15c0,.15,0,.18.1.19a.41.41,0,0,0,.11,0v.15a.28.28,0,0,1-.13,0c-.11,0-.18-.12-.18-.41s.06-.4.17-.38.14.19.14.43v.07Zm.07-.31s-.06.05-.07.18l.13,0C6.74,26.91,6.72,26.85,6.68,26.84Z"/><path class="cls-5" d="M7.66,27.68l-.11,0,0-.47h0l0,.45-.1,0,0-.78.08,0,0,.62h0l.05-.41h.08l0,.44h0l0-.62.08,0Z"/><path class="cls-5" d="M7.88,27.4c0,.16,0,.18.1.2H8.1v.15a.32.32,0,0,1-.14,0c-.11,0-.19-.12-.19-.42s.07-.4.18-.38.15.19.15.43v.07ZM8,27.09s-.06.05-.07.18l.13,0C8,27.16,8,27.1,8,27.09Z"/><path class="cls-5" d="M8.57,27.26s0,0-.07,0a.1.1,0,0,0-.1.06v.39l.14,0v.16l-.33-.07v-.15h.1v-.48h-.1V27l.19,0v.1s0-.11.12-.09a.1.1,0,0,1,.07,0Z"/><path class="cls-5" d="M8.75,27.58c0,.16.05.18.11.19a.24.24,0,0,0,.12,0v.16a.33.33,0,0,1-.14,0c-.12,0-.2-.12-.2-.43s.07-.41.19-.38.15.19.15.44v.07Zm.08-.32s-.07,0-.07.18l.13,0C8.89,27.33,8.87,27.27,8.83,27.26Z"/><path class="cls-5" d="M9.92,27.2a.18.18,0,0,0-.1,0s-.07,0-.07.11v0l.15,0v.14l-.15,0V28l.15,0v.15l-.35-.07V27.9l.1,0v-.49l-.1,0v-.15l.1,0v-.05c0-.24.08-.26.17-.25a.37.37,0,0,1,.11.05Z"/><path class="cls-5" d="M10.18,28.21c-.13,0-.18-.19-.18-.45s.06-.41.18-.39.18.19.18.46S10.3,28.23,10.18,28.21Zm0-.68c-.07,0-.08.11-.08.25s0,.26.08.27.08-.1.08-.24S10.25,27.54,10.18,27.53Z"/><path class="cls-5" d="M10.84,27.7l-.07,0s-.08,0-.1.06v.41l.14,0v.16l-.35-.07v-.16l.1,0v-.5l-.1,0v-.14l.21,0v.1c0-.05.05-.11.12-.1a.1.1,0,0,1,.07.05Z"/><path class="cls-5" d="M11.6,28.81l-.1,0,.06-.32h0l-.13-.84.11,0,.09.67h0l.11-.64.1,0Z"/><path class="cls-5" d="M12.08,28.59c-.14,0-.19-.19-.19-.45s.06-.43.19-.4.19.19.19.47S12.2,28.62,12.08,28.59Zm0-.69c-.07,0-.08.11-.08.25s0,.27.08.28.08-.1.08-.25S12.16,27.91,12.08,27.9Z"/><path class="cls-5" d="M12.65,28.69v-.08s-.07.09-.13.08-.13-.18-.13-.35v-.52l.1,0v.5c0,.12,0,.17.06.18s.08,0,.1-.05v-.6l.11,0v.83Z"/><polygon class="cls-5" points="11.03 35.47 7.39 34.36 7.39 29.38 11.03 30.22 11.03 35.47"/><path class="cls-4" d="M8,31.83v-.31l.17.05v.31Zm0,.93v-.31l.17,0v.31Z"/><path class="cls-4" d="M8.64,33.45l-.08-.24a1.11,1.11,0,0,0,.3-.87,1.6,1.6,0,0,0-.29-1l.07-.2A1.74,1.74,0,0,1,9,32.39C9,33.22,8.64,33.45,8.64,33.45Z"/><path class="cls-4" d="M9.43,32.2v-.31l.18.05v.31Zm0,.95v-.31l.18,0v.31Z"/><path class="cls-4" d="M10.08,33.86,10,33.62a1.13,1.13,0,0,0,.32-.89,1.6,1.6,0,0,0-.31-1l.08-.2a1.74,1.74,0,0,1,.4,1.24C10.48,33.63,10.08,33.86,10.08,33.86Z"/><path class="cls-6" d="M38.16,43,21.21,50V0L37.87,16.65A10.7,10.7,0,0,1,41,24.24V38.75A4.62,4.62,0,0,1,38.16,43Z"/></g></g></svg>