<svg xmlns="http://www.w3.org/2000/svg" viewBox="0 0 57.12 50"><defs><style>.cls-1{fill:#ee2956;}.cls-2{fill:#782b90;}.cls-3{fill:#f9c915;}.cls-4{fill:#241633;}</style></defs><title>Asset 8</title><g id="Layer_2" data-name="Layer 2"><g id="Layer_2-2" data-name="Layer 2"><path class="cls-1" d="M22.64,34.11c-2.28.64-2.76.13-2.9-.25a.39.39,0,0,0-.37-.24h-8c-.78,0-1.14.37-1.14,2.36H9.56V33.82c0-.45.22-.64,1.38-.64h9.34a.16.16,0,0,0,.1-.29s0,0,0,0a8.34,8.34,0,0,0-1.09-.32h-9c-.9,0-3.9,2.94-3.9,3.51H5.69c0-.76,2.91-4,3.65-4h9.91a3,3,0,0,1,.95.15.06.06,0,0,0,.06-.1,1.92,1.92,0,0,0-1.41-.58h-9a1.83,1.83,0,0,1-1.17-.41c-1.11-.9-2.79-2.95-2.79-3.55h.74c.34.86,2.82,3.51,3.29,3.51h8.93a3.34,3.34,0,0,1,1.13.28.12.12,0,0,0,.13-.19A2.84,2.84,0,0,0,19,30.59a6,6,0,0,0-1.83-.27H10.94c-1.17,0-1.39-.19-1.39-.64V27.52h.67c0,2,.36,2.35,1.14,2.35H17.8A5.18,5.18,0,0,1,22,32.67c0,.06.11,0,.09,0a9.32,9.32,0,0,0-2-3h.63A13.14,13.14,0,0,1,23,33a.09.09,0,0,0,.17-.06,9.17,9.17,0,0,0-1.69-3.29h.68a7.18,7.18,0,0,1,1.62,3.25c.43.12,0-2-.47-2.69H24a4.78,4.78,0,0,1,.74,1.91.79.79,0,0,0,.5-.35C25.53,31.76,25.51,33.31,22.64,34.11Z"/><path class="cls-2" d="M25.09,32.81A4.59,4.59,0,0,1,20.7,35a.31.31,0,1,0,0,.62c.9,0,3.75-.41,4.74-2.3C25.84,32.67,25.54,32.36,25.09,32.81Z"/><path class="cls-1" d="M25.57,33.66a4.62,4.62,0,0,1-4.39,2.19c-.74.21-.47,1.13.26.92a5.7,5.7,0,0,0,4.47-2.61C26.31,33.52,26,33.21,25.57,33.66Z"/><path class="cls-2" d="M25.86,34.74a3.63,3.63,0,0,1-3,2.44c-.33.07-.11.72.22.64.7-.12,2.83-1,3.27-2.58C26.53,34.68,26.05,34.28,25.86,34.74Z"/><path class="cls-1" d="M24.2,38a.56.56,0,0,0-.54.4,6.13,6.13,0,0,1-1.17,1.77,3.53,3.53,0,0,0-.5,2.27c0,.39.69.39.69,0,0-.78.55-2.83,1.4-3s0,2.93-.16,3.49-1,4,1.14,4.56a.35.35,0,0,0,.11-.69.63.63,0,0,1-.27-.14c-.53-.55-.81-2.18-.28-4.19a8.12,8.12,0,0,0,.12-4.05A.58.58,0,0,0,24.2,38Z"/><path class="cls-1" d="M25,37.53l.58-.63a2.86,2.86,0,0,0,3.63,2v.68a6.11,6.11,0,0,1-2.34,0s.2,3.73-2.09,4v-.56a3,3,0,0,0,1.28-3.51A4.44,4.44,0,0,0,25,37.53Z"/><path class="cls-1" d="M23.32,44v-.66c-.6,0-1.68-.12-1.68.77,0,.18.54.18.54,0S22.74,44,23.32,44Z"/><path class="cls-3" d="M13.28,33.94c-.09,1.36-.25,2.37-.51,2.37a75.58,75.58,0,0,1-11.16,0c-1.08,0-1.08-9.25,0-9.25a47.32,47.32,0,0,1,11.16,0c.26,0,.43,1.05.51,2.45a1.18,1.18,0,0,0,.8-.09c-.09-1.66-.28-2.94-.58-2.94a54,54,0,0,0-12.58,0c-1.23,0-1.23,10.43,0,10.43a86.59,86.59,0,0,0,12.58,0c.29,0,.49-1.24.58-2.86A.93.93,0,0,0,13.28,33.94Z"/><path class="cls-3" d="M32.6,29.13v-.3h2.06v.3Z"/><path class="cls-3" d="M40.85,29.13v-.3h2.06v.3Z"/><path class="cls-3" d="M32.09,33.43A2,2,0,0,1,31,31.69,1.82,1.82,0,0,1,32.09,30l.18.26a1.63,1.63,0,0,0-.88,1.4,1.86,1.86,0,0,0,.9,1.5Z"/><path class="cls-3" d="M34.15,33.43a2,2,0,0,1-1.06-1.74A1.82,1.82,0,0,1,34.15,30l.19.26a1.63,1.63,0,0,0-.89,1.4,1.86,1.86,0,0,0,.9,1.5Z"/><path class="cls-3" d="M34.66,33.27V33h2.06v.3Z"/><path class="cls-3" d="M36.72,33.27V33h2.06v.3Z"/><path class="cls-3" d="M38.78,33.27V33h2.07v.3Z"/><path class="cls-3" d="M41.37,33.43l-.2-.25a1.86,1.86,0,0,0,.91-1.5,1.63,1.63,0,0,0-.89-1.4l.18-.26a1.82,1.82,0,0,1,1.07,1.67A2,2,0,0,1,41.37,33.43Z"/><path class="cls-3" d="M43.44,33.43l-.21-.25a1.86,1.86,0,0,0,.91-1.5,1.63,1.63,0,0,0-.89-1.4l.18-.26a1.82,1.82,0,0,1,1.07,1.67A2,2,0,0,1,43.44,33.43Z"/><path class="cls-1" d="M31,37.57V34.22H32.2v.3h-.8v2.74h.8v.31Z"/><path class="cls-1" d="M35.92,35.87l.72.94h-.41l-.53-.74-.53.74h-.41l.72-.94-.72-.94h.41l.53.72.53-.72h.41Z"/><path class="cls-1" d="M40.05,35.87l.72.94h-.42l-.52-.74-.53.74h-.41l.71-.94-.71-.94h.41l.53.72.52-.72h.42Z"/><path class="cls-1" d="M43.4,37.57v-.31H44V34.52H43.4v-.3h1v3.35Z"/><path class="cls-1" d="M34.31,41.58,32.67,38.5l.27-.15,1.65,3.08Z"/><path class="cls-1" d="M41.19,41.58l-.27-.15,1.65-3.09.27.16Z"/><path class="cls-2" d="M34.15,45.86a2,2,0,0,1-1.06-1.74,1.82,1.82,0,0,1,1.06-1.67l.19.25a1.65,1.65,0,0,0-.89,1.41,1.86,1.86,0,0,0,.9,1.5Z"/><path class="cls-2" d="M35.81,43v.48h-.37v-.32a1,1,0,0,1,.2-.64H36A1.18,1.18,0,0,0,35.81,43Z"/><path class="cls-2" d="M39.94,43v.48h-.38v-.32a1,1,0,0,1,.21-.64h.3A1.15,1.15,0,0,0,39.94,43Z"/><path class="cls-2" d="M41.37,45.86l-.2-.25a1.86,1.86,0,0,0,.91-1.5,1.65,1.65,0,0,0-.89-1.41l.18-.25a1.82,1.82,0,0,1,1.07,1.67A2,2,0,0,1,41.37,45.86Z"/><path class="cls-2" d="M36.21,50a2,2,0,0,1-1.06-1.74,1.82,1.82,0,0,1,1.07-1.67l.18.25a1.65,1.65,0,0,0-.89,1.41,1.86,1.86,0,0,0,.91,1.5Z"/><path class="cls-2" d="M37.76,49.28c-.5,0-.81-.16-.81-.89V46.8h.38v1.57c0,.48.16.59.43.59s.44-.13.44-.64V46.8h.35v1.5C38.55,49.1,38.23,49.28,37.76,49.28Z"/><path class="cls-2" d="M39.31,50l-.2-.25a1.86,1.86,0,0,0,.9-1.5,1.65,1.65,0,0,0-.88-1.41l.18-.25a1.82,1.82,0,0,1,1.06,1.67A2,2,0,0,1,39.31,50Z"/><polygon class="cls-3" points="27 11.77 27 14.48 9.69 17.65 6.17 17.04 9.95 14.97 7.04 13.61 11.09 12.07 8.37 10 13.2 9.52 27 11.77"/><path class="cls-4" d="M14.84,14.48h-2a.15.15,0,0,1-.06-.05.18.18,0,0,1-.05-.07.19.19,0,0,1,0-.08V12.13h.43v1.93h1.74Z"/><path class="cls-4" d="M17.14,12.36a1,1,0,0,1,.21.32,1,1,0,0,1,.08.4v.45a1.06,1.06,0,0,1-.08.4.79.79,0,0,1-.2.31.92.92,0,0,1-.31.2,1,1,0,0,1-.39.08h-.58l-.19,0-.18-.05-.16.2h-.49l.32-.4a1,1,0,0,1-.21-.32,1,1,0,0,1-.08-.4v-.45a1.06,1.06,0,0,1,.08-.4.92.92,0,0,1,.2-.31.79.79,0,0,1,.31-.2,1.06,1.06,0,0,1,.4-.08h.58l.19,0,.17.05L17,12h.49Zm-1.83,1.17a.66.66,0,0,0,0,.21.59.59,0,0,0,.1.17l1.08-1.39h-.65a.56.56,0,0,0-.23,0,.78.78,0,0,0-.18.11.42.42,0,0,0-.11.18.56.56,0,0,0,0,.23ZM17,13.08a.66.66,0,0,0,0-.21,1,1,0,0,0-.1-.17l-1.08,1.39h.65a.56.56,0,0,0,.23,0,.57.57,0,0,0,.18-.12.42.42,0,0,0,.11-.17.59.59,0,0,0,0-.23Z"/><path class="cls-4" d="M20,13.11a1,1,0,0,1,0,.26,1,1,0,0,1-.1.21.67.67,0,0,1-.14.15l-.17.1-.18.06H18.27v-.42h1l.15,0a.26.26,0,0,0,.11-.07.28.28,0,0,0,.08-.11.34.34,0,0,0,0-.15v-.19a.37.37,0,0,0,0-.15.41.41,0,0,0-.07-.11.28.28,0,0,0-.11-.08.33.33,0,0,0-.15,0h-1a.17.17,0,0,0-.18.18v1.75h-.42V12.73a.58.58,0,0,1,.21-.47.5.5,0,0,1,.19-.1l.19,0h1a1,1,0,0,1,.26,0,.75.75,0,0,1,.2.1.67.67,0,0,1,.15.14,1.63,1.63,0,0,1,.11.17,1.21,1.21,0,0,1,.05.18.52.52,0,0,1,0,.17Z"/><path class="cls-4" d="M20.66,13.09h1.5v-1h.43v2.35h-.43v-1h-1.5v1h-.43V12.13h.43Z"/><path class="cls-4" d="M25.05,12.55h-.94v1.93h-.43V12.55h-.94v-.42h2.31Z"/><polygon class="cls-1" points="27 3.06 27 11.77 13.2 9.52 10.85 7.19 15.22 7.19 13.42 4.47 17.82 5.21 16.28 2.4 20.45 4.03 19.57 0.73 23.44 3.37 23.44 0 27 3.06"/><polygon class="cls-2" points="27 14.48 27 20.77 6.17 20.77 9.69 17.65 27 14.48"/><path class="cls-1" d="M35.7,24.58H30.07V22.52a1.35,1.35,0,0,1,0-.33,1.42,1.42,0,0,1,.11-.35,1.68,1.68,0,0,1,.2-.34,1.54,1.54,0,0,1,.29-.28,1.64,1.64,0,0,1,.4-.19,1.68,1.68,0,0,1,.52-.07h2.5a.39.39,0,0,0,.44-.45V20a.44.44,0,0,0-.11-.34.41.41,0,0,0-.32-.12H30.57V18.45h3.57a2,2,0,0,1,.51.07,1.66,1.66,0,0,1,.4.2,1.28,1.28,0,0,1,.29.28,1.45,1.45,0,0,1,.32.68,1.35,1.35,0,0,1,0,.33v.5a1.49,1.49,0,0,1-.16.73,1.33,1.33,0,0,1-.39.48,1.29,1.29,0,0,1-.5.27,1.66,1.66,0,0,1-.51.09H31.63a.61.61,0,0,0-.22,0,.28.28,0,0,0-.13.11.35.35,0,0,0-.06.14,1.24,1.24,0,0,0,0,.16v.95H35.7Z"/><path class="cls-1" d="M37.4,21h3a1.57,1.57,0,0,1,.5.08,1.4,1.4,0,0,1,.51.27,1.58,1.58,0,0,1,.39.48,1.64,1.64,0,0,1,.15.73V23a1.93,1.93,0,0,1,0,.33,1.45,1.45,0,0,1-.12.35,1.38,1.38,0,0,1-.2.33,1.28,1.28,0,0,1-.29.28,1.66,1.66,0,0,1-.4.2,2,2,0,0,1-.51.07h-2a2.47,2.47,0,0,1-.44,0,2.24,2.24,0,0,1-.46-.15,2.73,2.73,0,0,1-.43-.26,1.71,1.71,0,0,1-.37-.39,2.18,2.18,0,0,1-.26-.53,2.38,2.38,0,0,1-.09-.68v-2a2.31,2.31,0,0,1,.09-.67,2,2,0,0,1,.26-.53,1.71,1.71,0,0,1,.37-.39,2.2,2.2,0,0,1,.43-.27,2.24,2.24,0,0,1,.46-.15,2.47,2.47,0,0,1,.44-.05h2.79v1.11H38.34a1.12,1.12,0,0,0-.38.09.91.91,0,0,0-.3.19.81.81,0,0,0-.19.29,1,1,0,0,0-.07.38Zm0,1.12v.44a.94.94,0,0,0,.07.39.81.81,0,0,0,.21.3.77.77,0,0,0,.3.19.9.9,0,0,0,.37.07h2a.38.38,0,0,0,.32-.13A.45.45,0,0,0,40.8,23v-.5a.45.45,0,0,0-.12-.33.41.41,0,0,0-.33-.11Z"/><path class="cls-1" d="M49.46,22a2.39,2.39,0,0,1-.1.71,2.29,2.29,0,0,1-.27.62,2.24,2.24,0,0,1-.41.51,2.9,2.9,0,0,1-.53.39,2.59,2.59,0,0,1-.6.24,2.37,2.37,0,0,1-.65.09h-2a2.5,2.5,0,0,1-.66-.09,2.59,2.59,0,0,1-.6-.24,2.53,2.53,0,0,1-.52-.39,2.59,2.59,0,0,1-.42-.51,3.14,3.14,0,0,1-.27-.62,2.76,2.76,0,0,1-.09-.71V21a2.51,2.51,0,0,1,.21-1,2.58,2.58,0,0,1,.57-.81,2.47,2.47,0,0,1,.81-.53,2.5,2.5,0,0,1,1-.19h2a2.37,2.37,0,0,1,.65.09,2.59,2.59,0,0,1,.6.24,2.9,2.9,0,0,1,.53.39,2.24,2.24,0,0,1,.41.51,2.29,2.29,0,0,1,.27.62,2.41,2.41,0,0,1,.1.72Zm-1.12-1a1.46,1.46,0,0,0-.12-.6A1.4,1.4,0,0,0,47.9,20a1.31,1.31,0,0,0-.46-.3,1.4,1.4,0,0,0-.54-.1h-2a1.47,1.47,0,0,0-.54.1,1.45,1.45,0,0,0-.79.75,1.48,1.48,0,0,0-.12.61v1a1.46,1.46,0,0,0,.12.6,1.36,1.36,0,0,0,.32.46,1.56,1.56,0,0,0,.46.29,1.49,1.49,0,0,0,.55.1h2a1.59,1.59,0,0,0,.59-.11,1.31,1.31,0,0,0,.46-.3,1.44,1.44,0,0,0,.29-.46,1.57,1.57,0,0,0,.1-.58Zm-.48-.82a.54.54,0,0,1,.08.21.37.37,0,0,1,0,.21.5.5,0,0,1-.08.2.57.57,0,0,1-.16.15l-3,2a.51.51,0,0,1-.15.07.41.41,0,0,1-.16,0,.59.59,0,0,1-.26-.07.49.49,0,0,1-.2-.18.78.78,0,0,1-.09-.21.74.74,0,0,1,0-.21.84.84,0,0,1,.08-.2.46.46,0,0,1,.16-.15l3-2a.5.5,0,0,1,.2-.08.37.37,0,0,1,.21,0,.5.5,0,0,1,.2.08A.75.75,0,0,1,47.86,20.2Z"/><path class="cls-1" d="M57.12,22a2.39,2.39,0,0,1-.1.71,2.29,2.29,0,0,1-.27.62,2.24,2.24,0,0,1-.41.51,2.9,2.9,0,0,1-.53.39,2.43,2.43,0,0,1-.6.24,2.37,2.37,0,0,1-.65.09h-2a2.5,2.5,0,0,1-.66-.09,2.59,2.59,0,0,1-.6-.24,2.83,2.83,0,0,1-.52-.39,2.59,2.59,0,0,1-.42-.51,3.14,3.14,0,0,1-.27-.62A2.76,2.76,0,0,1,50,22V21a2.51,2.51,0,0,1,.21-1,2.58,2.58,0,0,1,.57-.81,2.47,2.47,0,0,1,.81-.53,2.5,2.5,0,0,1,1-.19h2a2.37,2.37,0,0,1,.65.09,2.43,2.43,0,0,1,.6.24,2.9,2.9,0,0,1,.53.39,2.24,2.24,0,0,1,.41.51,2.29,2.29,0,0,1,.27.62,2.41,2.41,0,0,1,.1.72ZM56,21a1.46,1.46,0,0,0-.12-.6,1.27,1.27,0,0,0-.32-.46,1.31,1.31,0,0,0-.46-.3,1.4,1.4,0,0,0-.54-.1h-2a1.47,1.47,0,0,0-.54.1,1.45,1.45,0,0,0-.79.75,1.48,1.48,0,0,0-.12.61v1a1.46,1.46,0,0,0,.12.6,1.52,1.52,0,0,0,.32.46,1.56,1.56,0,0,0,.46.29,1.49,1.49,0,0,0,.55.1h2a1.59,1.59,0,0,0,.59-.11,1.31,1.31,0,0,0,.46-.3,1.44,1.44,0,0,0,.29-.46A1.57,1.57,0,0,0,56,22Zm-.48-.82a.54.54,0,0,1,.08.21.37.37,0,0,1,0,.21.5.5,0,0,1-.08.2.46.46,0,0,1-.16.15l-3,2a.51.51,0,0,1-.15.07.41.41,0,0,1-.16,0,.59.59,0,0,1-.26-.07.49.49,0,0,1-.2-.18.54.54,0,0,1-.08-.21.5.5,0,0,1,0-.21.84.84,0,0,1,.08-.2.46.46,0,0,1,.16-.15l3-2A.5.5,0,0,1,55,20a.41.41,0,0,1,.22,0,.52.52,0,0,1,.19.08A.75.75,0,0,1,55.52,20.2Z"/></g></g></svg>