<svg xmlns="http://www.w3.org/2000/svg" viewBox="0 0 29.88 50"><defs><style>.cls-1{fill:#f7941d;}.cls-2{fill:#f9c915;}.cls-3{fill:#ee2956;}.cls-4{fill:#782b90;}</style></defs><title>Asset 10</title><g id="Layer_2" data-name="Layer 2"><g id="Layer_2-2" data-name="Layer 2"><path class="cls-1" d="M29.88,50C19.64,46.5,9.65,46.19,0,50,2.83,50,2.83,0,0,0Q14.91,8.6,29.88,0C26.46,0,26.46,50,29.88,50Z"/><path class="cls-2" d="M5.83,6.94V6.41H9.47v.53Z"/><path class="cls-2" d="M20.38,6.94V6.41H24v.53Z"/><path class="cls-2" d="M4.93,14.54a3.54,3.54,0,0,1-1.87-3.07,3.22,3.22,0,0,1,1.88-3L5.26,9A2.9,2.9,0,0,0,3.7,11.45a3.26,3.26,0,0,0,1.59,2.64Z"/><path class="cls-2" d="M8.57,14.54A3.54,3.54,0,0,1,6.7,11.47a3.22,3.22,0,0,1,1.88-3L8.9,9a2.9,2.9,0,0,0-1.57,2.48,3.26,3.26,0,0,0,1.6,2.64Z"/><path class="cls-2" d="M9.47,14.24v-.53h3.64v.53Z"/><path class="cls-2" d="M13.11,14.24v-.53h3.64v.53Z"/><path class="cls-2" d="M16.75,14.24v-.53h3.63v.53Z"/><path class="cls-2" d="M21.31,14.54,21,14.09a3.26,3.26,0,0,0,1.6-2.64A2.9,2.9,0,0,0,21,9l.33-.45a3.22,3.22,0,0,1,1.87,3A3.54,3.54,0,0,1,21.31,14.54Z"/><path class="cls-2" d="M25,14.54l-.36-.45a3.26,3.26,0,0,0,1.6-2.64A2.9,2.9,0,0,0,24.62,9l.32-.45a3.22,3.22,0,0,1,1.88,3A3.54,3.54,0,0,1,25,14.54Z"/><path class="cls-3" d="M3.09,21.82V15.91h2v.54H3.72v4.84H5.13v.53Z"/><path class="cls-3" d="M11.7,18.83,13,20.49h-.73l-.92-1.3-.93,1.3H9.65l1.26-1.66L9.65,17.18h.73l.93,1.26.92-1.26H13Z"/><path class="cls-3" d="M19,18.83l1.26,1.66h-.73l-.93-1.3-.93,1.3h-.72l1.26-1.66-1.26-1.65h.72l.93,1.26.93-1.26h.73Z"/><path class="cls-3" d="M24.88,21.82v-.53H26V16.45H24.88v-.54h1.75v5.91Z"/><path class="cls-3" d="M8.86,28.9,6,23.47l.48-.27,2.9,5.44Z"/><path class="cls-3" d="M21,28.91l-.48-.27,2.91-5.45.47.28Z"/><path class="cls-4" d="M8.57,36.45A3.54,3.54,0,0,1,6.7,33.38a3.22,3.22,0,0,1,1.88-3l.32.45a2.9,2.9,0,0,0-1.57,2.48A3.26,3.26,0,0,0,8.93,36Z"/><path class="cls-4" d="M11.51,31.32v.85h-.67v-.56a1.78,1.78,0,0,1,.36-1.13h.54A2,2,0,0,0,11.51,31.32Z"/><path class="cls-4" d="M18.78,31.32v.85h-.66v-.56a1.78,1.78,0,0,1,.36-1.13H19A2,2,0,0,0,18.78,31.32Z"/><path class="cls-4" d="M21.31,36.45,21,36a3.26,3.26,0,0,0,1.6-2.64A2.9,2.9,0,0,0,21,30.88l.33-.45a3.22,3.22,0,0,1,1.87,3A3.54,3.54,0,0,1,21.31,36.45Z"/><path class="cls-4" d="M12.21,43.75a3.54,3.54,0,0,1-1.87-3.07,3.2,3.2,0,0,1,1.88-2.94l.32.44A2.91,2.91,0,0,0,11,40.66a3.28,3.28,0,0,0,1.6,2.65Z"/><path class="cls-4" d="M14.94,42.48c-.88,0-1.43-.27-1.43-1.57v-2.8h.66v2.77c0,.85.29,1,.77,1s.77-.22.77-1.13V38.11h.63v2.65C16.34,42.17,15.76,42.48,14.94,42.48Z"/><path class="cls-4" d="M17.67,43.75l-.35-.44a3.28,3.28,0,0,0,1.59-2.65,2.91,2.91,0,0,0-1.56-2.48l.32-.44a3.2,3.2,0,0,1,1.88,2.94A3.54,3.54,0,0,1,17.67,43.75Z"/></g></g></svg>