<svg xmlns="http://www.w3.org/2000/svg" viewBox="0 0 38.67 50"><defs><style>.cls-1{fill:#b12078;}.cls-2{fill:#782b90;}.cls-3{fill:#ee2956;}.cls-4{fill:#f9c915;}.cls-5{fill:#231f20;}.cls-6{fill:#6f3790;}</style></defs><title>Asset 11</title><g id="Layer_2" data-name="Layer 2"><g id="Layer_2-2" data-name="Layer 2"><polygon class="cls-1" points="0 14.49 24.9 22.79 24.9 50 0 27.69 0 14.49"/><polygon class="cls-2" points="38.67 37.67 24.9 50 24.9 22.79 38.67 18.2 38.67 37.67"/><polygon class="cls-3" points="0 14.49 24.9 22.79 38.67 18.2 11.86 13.22 0 14.49"/><polygon class="cls-2" points="28.93 18.39 11.83 14.57 7.86 15.08 24.54 19.56 28.93 18.39"/><path class="cls-4" d="M24.69,0c-.1,1.47-1.59-.27-1.59,2.55V18.1l-8.68-2.2V3.32a1.63,1.63,0,0,1,.22-1.27c.41-.51.85-.18.77-.76Z"/><path class="cls-5" d="M15.76,5.39v1h-.13v-1h-.17V5.22l.48,0v.19Z"/><path class="cls-5" d="M16.38,6.4V5.83c0-.14,0-.19-.07-.19s-.09.05-.12.07V6.4h-.13V5.12h.13v.46a.2.2,0,0,1,.16-.13c.17,0,.16.17.16.36v.6Z"/><path class="cls-5" d="M16.67,6.4V6.21h.18V5.62h-.16V5.45H17v.77h.18v.19Zm.24-1.08-.1-.17.1-.17.1.17Z"/><path class="cls-5" d="M17.49,6.41a.44.44,0,0,1-.21,0l0-.18.17,0c.09,0,.14,0,.14-.1s-.32-.06-.32-.42a.27.27,0,0,1,.24-.3.38.38,0,0,1,.19,0l0,.18a.47.47,0,0,0-.16,0c-.07,0-.11,0-.11.1s.32.08.32.42A.27.27,0,0,1,17.49,6.41Z"/><path class="cls-5" d="M18.59,6.38V6.19h.19V5.57H18.6V5.39h.33v.8h.19v.2Zm.26-1.12-.11-.18.11-.18.11.17Z"/><path class="cls-5" d="M19.48,6.39a.38.38,0,0,1-.22,0l0-.19a.44.44,0,0,0,.19,0c.09,0,.15,0,.15-.1s-.35-.06-.35-.44a.28.28,0,0,1,.26-.31.46.46,0,0,1,.21,0l0,.18a.51.51,0,0,0-.17,0c-.08,0-.12,0-.12.1s.36.09.36.44A.29.29,0,0,1,19.48,6.39Z"/><path class="cls-5" d="M20.93,6.38a.52.52,0,0,1-.25,0V4.94h.16v.43A.26.26,0,0,1,21,5.3c.18,0,.28.14.28.49S21.11,6.38,20.93,6.38Zm0-.88a.21.21,0,0,0-.11,0v.62a.2.2,0,0,0,.09,0c.11,0,.16-.16.16-.37S21.07,5.5,21,5.5Z"/><path class="cls-5" d="M21.68,6.38a.6.6,0,0,1-.25,0l0-.2.21,0c.11,0,.17,0,.17-.1s-.39-.07-.39-.47a.29.29,0,0,1,.3-.32.37.37,0,0,1,.23,0l0,.19a.58.58,0,0,0-.19,0c-.08,0-.13,0-.13.11s.39.09.39.46A.31.31,0,0,1,21.68,6.38Z"/><path class="cls-5" d="M15.76,7.42v1h-.13v-1h-.17V7.23h.48v.18Z"/><path class="cls-5" d="M16.38,8.46V7.89c0-.14,0-.19-.07-.2s-.09,0-.12.07v.69h-.13V7.16h.13v.46s.08-.13.16-.13.16.18.16.38v.59Z"/><path class="cls-5" d="M16.67,8.47V8.28h.18V7.7h-.16V7.53H17V8.3h.18v.19Zm.24-1.06-.1-.17.1-.17.1.17Z"/><path class="cls-5" d="M17.49,8.52a.43.43,0,0,1-.21,0l0-.18a.38.38,0,0,0,.17,0c.09,0,.14,0,.14-.09s-.32-.07-.32-.44a.25.25,0,0,1,.24-.28.39.39,0,0,1,.19.06l0,.17-.16,0c-.07,0-.11,0-.11.09s.32.1.32.44S17.58,8.53,17.49,8.52Z"/><path class="cls-5" d="M18.59,8.56v-.2h.19V7.75H18.6V7.57h.33v.8h.19v.2Zm.26-1.12-.11-.18.11-.17.11.18Z"/><path class="cls-5" d="M19.48,8.61a.48.48,0,0,1-.22,0l0-.19a.46.46,0,0,0,.19,0c.09,0,.15,0,.15-.09s-.35-.08-.35-.46c0-.21.13-.3.26-.29a.46.46,0,0,1,.21,0l0,.19a.55.55,0,0,0-.17,0c-.08,0-.12,0-.12.1s.36.1.36.46A.27.27,0,0,1,19.48,8.61Z"/><path class="cls-5" d="M20.93,8.68a.46.46,0,0,1-.25-.07V7.22h.16v.43A.26.26,0,0,1,21,7.6c.18,0,.28.15.28.51S21.11,8.68,20.93,8.68Zm0-.88a.35.35,0,0,0-.11,0v.62a.2.2,0,0,0,.09,0c.11,0,.16-.15.16-.36S21.07,7.8,21,7.8Z"/><path class="cls-5" d="M21.68,8.71a.58.58,0,0,1-.25-.05l0-.2a1,1,0,0,0,.21,0c.11,0,.17,0,.17-.09s-.39-.09-.39-.49a.29.29,0,0,1,.3-.31.6.6,0,0,1,.23.06l0,.2a.41.41,0,0,0-.19,0c-.08,0-.13,0-.13.1S22,8,22,8.4A.28.28,0,0,1,21.68,8.71Z"/><path class="cls-5" d="M15.76,9.45v1h-.13v-1h-.17V9.24l.48,0v.19Z"/><path class="cls-5" d="M16.38,10.52V10c0-.14,0-.19-.07-.2a.23.23,0,0,0-.12.06v.69h-.13V9.2h.13v.46a.2.2,0,0,1,.16-.12c.17,0,.16.19.16.38v.6Z"/><path class="cls-5" d="M16.67,10.55v-.19l.18,0V9.79h-.16V9.6l.29,0v.77h.18v.19Zm.24-1.06-.1-.17.1-.16.1.17Z"/><path class="cls-5" d="M17.49,10.64a.58.58,0,0,1-.21-.06l0-.18a.64.64,0,0,0,.17,0c.09,0,.14,0,.14-.08s-.32-.09-.32-.46c0-.2.12-.27.24-.27a.4.4,0,0,1,.19.07l0,.17-.16-.05c-.07,0-.11,0-.11.08s.32.12.32.46S17.58,10.65,17.49,10.64Z"/><path class="cls-5" d="M18.59,10.73v-.19h.19V9.94l-.18,0V9.74l.33,0v.8h.19v.2Zm.26-1.1-.11-.19.11-.17.11.19Z"/><path class="cls-5" d="M19.48,10.83a.38.38,0,0,1-.22-.06l0-.19a.49.49,0,0,0,.19.05c.09,0,.15,0,.15-.08s-.35-.1-.35-.48c0-.21.13-.29.26-.28a.38.38,0,0,1,.21.07l0,.18a.37.37,0,0,0-.17,0c-.08,0-.12,0-.12.08s.36.13.36.48A.25.25,0,0,1,19.48,10.83Z"/><path class="cls-5" d="M20.93,11a.44.44,0,0,1-.25-.08V9.5h.16v.43a.26.26,0,0,1,.14,0c.18,0,.28.17.28.53S21.11,11,20.93,11Zm0-.88a.35.35,0,0,0-.11,0v.62l.09,0c.11,0,.16-.14.16-.35S21.07,10.1,21,10.09Z"/><path class="cls-5" d="M21.68,11.05a.57.57,0,0,1-.25-.07l0-.2.21.06c.11,0,.17,0,.17-.09s-.39-.11-.39-.51a.26.26,0,0,1,.3-.29A.62.62,0,0,1,22,10l0,.19a.41.41,0,0,0-.19-.05c-.08,0-.13,0-.13.09s.39.13.39.5A.28.28,0,0,1,21.68,11.05Z"/><path class="cls-5" d="M15.76,11.48v1l-.13,0v-1l-.17,0v-.18l.48.05v.19Z"/><path class="cls-5" d="M16.38,12.58V12c0-.14,0-.2-.07-.2s-.09,0-.12,0v.69l-.13,0V11.25h.13v.46c0-.05.08-.12.16-.11s.16.2.16.39v.6Z"/><path class="cls-5" d="M16.67,12.62v-.19l.18,0v-.59l-.16,0v-.17l.29,0v.76l.18,0v.19Zm.24-1-.1-.18.1-.16.1.18Z"/><path class="cls-5" d="M17.49,12.76a.86.86,0,0,1-.21-.07l0-.18.17.06c.09,0,.14,0,.14-.08s-.32-.11-.32-.47c0-.2.12-.27.24-.26a.41.41,0,0,1,.19.08l0,.17a.52.52,0,0,0-.16-.06c-.07,0-.11,0-.11.08s.32.14.32.47S17.58,12.77,17.49,12.76Z"/><path class="cls-5" d="M18.59,12.9v-.19l.19,0v-.62l-.18,0v-.18l.33,0v.8l.19,0V13Zm.26-1.08-.11-.19.11-.17.11.19Z"/><path class="cls-5" d="M19.48,13.05a.48.48,0,0,1-.22-.07l0-.19.19.06c.09,0,.15,0,.15-.07s-.35-.12-.35-.5c0-.21.13-.28.26-.27a.49.49,0,0,1,.21.08l0,.18a.58.58,0,0,0-.17-.06c-.08,0-.12,0-.12.08s.36.14.36.5A.24.24,0,0,1,19.48,13.05Z"/><path class="cls-5" d="M20.93,13.27a.5.5,0,0,1-.25-.1V11.78l.16,0v.43a.2.2,0,0,1,.14,0c.18,0,.28.19.28.54S21.11,13.29,20.93,13.27Zm0-.88a.2.2,0,0,0-.11,0V13l.09,0c.11,0,.16-.13.16-.34S21.07,12.4,21,12.39Z"/><path class="cls-5" d="M21.68,13.38a.57.57,0,0,1-.25-.08l0-.2a.74.74,0,0,0,.21.07c.11,0,.17,0,.17-.08s-.39-.13-.39-.53a.25.25,0,0,1,.3-.27.63.63,0,0,1,.23.08l0,.19a.62.62,0,0,0-.19-.07c-.08,0-.13,0-.13.09s.39.15.39.52A.26.26,0,0,1,21.68,13.38Z"/><path class="cls-5" d="M3.87,22l-.45-.25-.32-4,.3.12.2,2.75,0,.74h0l.05-.69.24-2.58.31.13Z"/><path class="cls-5" d="M5,22.65c-.4-.22-.55-.9-.55-1.89s.18-1.57.57-1.4.56.88.56,1.94S5.41,22.87,5,22.65ZM5,20c-.22-.1-.25.39-.25.93s0,1,.25,1.14.24-.33.24-.9S5.26,20.08,5,20Z"/><path class="cls-5" d="M6.81,23.64c-.28-.16-.6-.35-.6-1.36V20.55l-.3-.14v-.59l.3.13v-.68l.34.15v.68l.64.28V21l-.64-.3v1.71c0,.33.09.44.25.52a1,1,0,0,0,.4.11l0,.66A.68.68,0,0,1,6.81,23.64Z"/><path class="cls-5" d="M8,22.78c0,.71.19.87.43,1a1.81,1.81,0,0,0,.48.16l0,.7a1,1,0,0,1-.58-.15c-.47-.27-.77-.8-.77-2.16s.27-1.74.73-1.54.63,1,.63,2.17v.31Zm.3-1.35c-.17-.08-.28.15-.29.76l.55.27C8.53,21.83,8.44,21.51,8.27,21.43Z"/><path class="cls-5" d="M10.7,25.72V25l.59.32V21.82l-.59-.26v-.75l1.71.7v.79L11.79,22v3.52l.62.33v.79Z"/><path class="cls-5" d="M14.92,24.74a1.31,1.31,0,0,0-.4-.31.41.41,0,0,0-.55.17v2.11l.79.42V28l-1.86-1v-.8l.53.28V23.88l-.52-.24V22.9l1.06.47v.55c.11-.21.28-.51.67-.34a1.27,1.27,0,0,1,.4.33Z"/><path class="cls-5" d="M17.69,29.63a1.29,1.29,0,0,1-.78-.95.49.49,0,0,1-.69.15,1.77,1.77,0,0,1-.79-1.69c0-1.07.56-1,1-.77l.38.17v-.47a.77.77,0,0,0-.54-.85,1.34,1.34,0,0,0-.61-.11l-.13-.86a1.31,1.31,0,0,1,.85.1,1.64,1.64,0,0,1,1.07,1.77v2.26a.43.43,0,0,0,.23.41Zm-.84-2.45L16.5,27c-.41-.18-.47.06-.47.34a.69.69,0,0,0,.29.67.73.73,0,0,0,.53,0Z"/><path class="cls-5" d="M20.1,30.92V28c0-.73-.05-1-.41-1.19a.62.62,0,0,0-.62.09v3.47l-.7-.39V25.31l.7.31v.51a.68.68,0,0,1,.85-.26c1,.41.94,1.33.94,2.34v3.13Z"/><path class="cls-5" d="M6.49,30.7v-.58a3.91,3.91,0,0,0,.82-1.83c0-.56-.1-.78-.29-.91a.46.46,0,0,0-.4-.07l-.11-.64c.11-.08.24-.15.53,0a2.07,2.07,0,0,1,.65,1.77A2.73,2.73,0,0,1,7,30.39l.83.65v.69Z"/><path class="cls-5" d="M8.84,32.64c-.65-.52-.71-1.61-.71-2.83s.06-2.34.76-1.88.72,1.72.72,2.82C9.61,32.17,9.51,33.17,8.84,32.64Zm0-4c-.26-.17-.35.25-.35,1.46s.1,1.68.33,1.87.35-.32.35-1.46S9.13,28.8,8.87,28.62Zm0,2-.16-.48.16-.23.18.47Z"/><path class="cls-5" d="M10.81,34.21c-.74-.59-.8-1.74-.8-3s.07-2.48.86-2,.81,1.86.81,3C11.68,33.75,11.56,34.81,10.81,34.21Zm0-4.26c-.3-.2-.39.24-.39,1.53s.11,1.79.37,2,.39-.32.39-1.54S11.13,30.15,10.84,30Zm0,2.13-.18-.51.18-.25.2.52Z"/><path class="cls-5" d="M12.66,35.7a1.7,1.7,0,0,1-.38-.42l.11-.68a2,2,0,0,0,.28.29c.56.43.68,0,.74-.62a1,1,0,0,1-.45-.21,2.74,2.74,0,0,1-.82-2.27c0-1.1.34-1.52.91-1.15s1,1.49,1,3.07C14,36.25,13.45,36.33,12.66,35.7ZM13,31.45c-.26-.18-.38.09-.38.62,0,.83.13,1.1.37,1.27a1.1,1.1,0,0,0,.44.2v-.32C13.46,32.38,13.38,31.68,13,31.45Z"/><path class="cls-4" d="M36.4,30.76l-.53,3.84c-.56,2.28-1.74,4.92-2.74,5.85-.84.62-1.56.32-2.62-1.21l-1.33-3.83a43.76,43.76,0,0,1,0-8.88c0-1.42,7.22-4.39,7.22-3.2A36.17,36.17,0,0,1,36.4,30.76Z"/><path class="cls-3" d="M35.8,28.32c0,.28-.42.75-.95,1.06s-1,.35-1,.06.46-.79,1-1.09S35.8,28,35.8,28.32Z"/><path class="cls-3" d="M32.38,30.27c0,.3-.5.84-1.14,1.21s-1.21.45-1.21.13.55-.89,1.21-1.25S32.38,30,32.38,30.27Z"/><path class="cls-3" d="M35.76,31.75a6.45,6.45,0,0,1-1,2.47l-1.29,1.1-.35-.69-.12.08-.36,1.2-1.44.84c-.47.17-.85-.4-1.21-1.21l.48-.32c.31,1.62,2.06,0,2-1a.45.45,0,0,0,.49,0l.12-.08a2.15,2.15,0,0,0,.47-.69c0,1,1.52.27,1.76-1.52Z"/><path class="cls-3" d="M29.45,29.61c.79-1.32,1.33-1.49,2.88-.66.31.2.34-.54.11-.74C31.24,27.52,29.85,27.16,29.45,29.61Z"/><path class="cls-3" d="M36.11,26.17c-.59-.5-1-.2-2.37,2-.29.52-.32-.18-.1-.61C34.71,25.82,35.81,24.39,36.11,26.17Z"/><polygon class="cls-3" points="33.45 36.98 33.58 37.64 33.31 40.05 33.13 40.34 32.95 40.36 32.67 38.34 32.81 37.45 32.53 37.28 33.71 36.4 33.45 36.98"/><path class="cls-6" d="M32.09,32.87s0,0,0,0a1.47,1.47,0,0,0-.25.84c0,.37-1,1.35-1.22,1.43,0,0,0,0,0,.06.17.07,1.33-.76,1.32-1.2A2.94,2.94,0,0,1,32.09,32.87Z"/><path class="cls-6" d="M34.11,31.48s0-.05,0-.05.22.2.22.5.86.06,1-.08,0,0,0,0c-.14.25-1.11.84-1.11.42A1.57,1.57,0,0,0,34.11,31.48Z"/><path class="cls-6" d="M29.31,34.94c.07,1.53,2.44,4.77,2.58,4.8S29.17,35.17,29.31,34.94Z"/><path class="cls-6" d="M36.37,30.52a51,51,0,0,1-2,7.36S36.48,30.57,36.37,30.52Z"/></g></g></svg>