<svg xmlns="http://www.w3.org/2000/svg" viewBox="0 0 45.64 50"><defs><style>.cls-1{fill:#f9c915;}.cls-2{fill:#782b90;}.cls-3{fill:#ee2956;}.cls-4{fill:#241633;}.cls-5{fill:#5ec7d3;}</style></defs><title>Asset 12</title><g id="Layer_2" data-name="Layer 2"><g id="Isolation_Mode" data-name="Isolation Mode"><path class="cls-1" d="M45.64,7V17.42c0,2.3-1.41,11.37-2.9,12.86,0,0-5,7.28-9.76,7.28s-9.75-7.28-9.75-7.28c-1.5-1.49-2.91-10.56-2.91-12.86V7C23.43,5.22,28,4.66,33,4.43,38,4.66,42.53,5.22,45.64,7Z"/><ellipse class="cls-2" cx="39.1" cy="16.56" rx="3.29" ry="1.11"/><ellipse class="cls-2" cx="27.07" cy="16.31" rx="3.29" ry="1.11"/><path class="cls-3" d="M42.55,23.62,41,26a2.89,2.89,0,0,1-2.4,1.48c-1.86.23-4,.3-4,.3A5.1,5.1,0,0,0,33,25.89a5.1,5.1,0,0,0-1.59,1.86s-2.18-.07-4-.3A2.89,2.89,0,0,1,25,26l-1.53-2.35h1.11c1.07,1.51,2.13,2.79,3.17,2.6a2.57,2.57,0,0,0,3.41-1.86c.56,1,3.18,1,3.74,0a2.57,2.57,0,0,0,3.41,1.86c1,.19,2.1-1.09,3.17-2.6Z"/><path class="cls-3" d="M34.33,33.21l-.95,4.31a1.81,1.81,0,0,1-.4,0,3.9,3.9,0,0,1-.59,0h0l-.82-4.28.5-1.65-1-1.23a14,14,0,0,0,3.66,0l-.83,1.06Z"/><path class="cls-1" d="M31.08,30.34l0,0S31.08,30.35,31.08,30.34Z"/><path class="cls-1" d="M34.78,30.34a0,0,0,0,1,0,0Z"/><path class="cls-3" d="M34.37,13.25c2.18-3.34,8.67-4.59,9.71-1.18-2.75-1.61-8.46,1.56-8.9,1.85S33.63,14.38,34.37,13.25Z"/><path class="cls-3" d="M31.27,13.25c-2.18-3.34-8.67-4.59-9.71-1.18,2.75-1.61,8.46,1.56,8.9,1.85S32,14.38,31.27,13.25Z"/><path class="cls-2" d="M22.86,16.4c-1.22,0-1.83-1.62-1.93-1.87C20.31,14.5,21,16.84,22.86,16.4Z"/><path class="cls-2" d="M22.09,16.46a1.86,1.86,0,0,0-1.49.82C20.74,17.28,21.69,16.56,22.09,16.46Z"/><path class="cls-2" d="M43.07,16.4c1.22,0,1.83-1.62,1.93-1.87C45.62,14.5,45,16.84,43.07,16.4Z"/><path class="cls-2" d="M43.83,16.46a1.86,1.86,0,0,1,1.5.82C45.19,17.28,44.24,16.56,43.83,16.46Z"/><path class="cls-2" d="M25.4,23.47l.07,0a7.42,7.42,0,0,0,3.15-1.34c.06-.14.37-.86.78-1a.14.14,0,0,1,.18.18c-.08.27-.33.42-.74,1.18l-.05.06C27.23,23.53,24.69,24,25.4,23.47Z"/><path class="cls-2" d="M40.3,23.47l-.07,0a7.42,7.42,0,0,1-3.15-1.34c-.07-.14-.37-.86-.78-1a.15.15,0,0,0-.19.18c.09.27.34.42.75,1.18l0,.06C38.47,23.53,41,24,40.3,23.47Z"/><path class="cls-2" d="M43.18,23.86c0,1.54-5.1,9.16-5.42,9.44.6.11,6.23-8.2,6.07-9.87A1.29,1.29,0,0,1,43.18,23.86Z"/><path class="cls-2" d="M23,24.07c0,1.54,5.1,9.16,5.42,9.44-.61.11-6.23-8.2-6.08-9.87A1.34,1.34,0,0,0,23,24.07Z"/><path class="cls-4" d="M31,37.41a22.34,22.34,0,0,1,.07-2.95A19.86,19.86,0,0,0,31.76,31c.59.46,2.12-.23,2.42-1.26.13-.42,0-1,.17-1.31s.15-8.08-.9-8.7-.8-.48-.83-.78c-.08-.67.1-5.65-1.14-7.68s-1.66-4.49-2.26-5.6a5.84,5.84,0,0,0-.76-.93A23.1,23.1,0,0,0,19.52,7V17.42c0,2.3,1.41,11.37,2.9,12.86C22.42,30.28,26.67,36.42,31,37.41Z"/><path class="cls-3" d="M2,9.37c-1.76,1.76-2,5.35-2,7.19S2.08,23,2,23.87c-.65-.34-1.55-.16-1.58,1.69a10.56,10.56,0,0,0,.92,4A16,16,0,0,1,2,32.26c.08.57.74,2.16,2.14,1.61C5,33.48,5,33.08,6,33.7A16.82,16.82,0,0,0,8.3,37.13c.09.1,2.49,7.38,2.49,7.38a2.62,2.62,0,0,0-1.57,2.86,17,17,0,0,0-2,2.63H43.07V44.83s-1.34-.06-2.16,0A10.43,10.43,0,0,0,38,43.72a9.29,9.29,0,0,1-3.33-2c-.23-.48-1.18-.68-2.09-.88-.6-1.1-1.1-2.46-1.73-2.47a5.4,5.4,0,0,1-1,0,21.21,21.21,0,0,1,0-3.84,37.58,37.58,0,0,0,.8-4.71c.58.46,2,1,2.28-.06.12-.42,0-1,.16-1.31s.16-8.08-.89-8.7-.8-.48-.84-.78c-.08-.67.11-5.65-1.14-7.68s-1.66-4.49-2.26-5.6S22.5,0,19.3,1.2C18.29.08,7-2,2.89,4.64A6.22,6.22,0,0,0,2,9.37Z"/><path class="cls-2" d="M.63,25.35c0-.51.36-1.07,1.46.34a9.84,9.84,0,0,0-.54,3C1.1,28.39.66,25.71.63,25.35Z"/><path class="cls-2" d="M2.92,26.58c-.75.21-.64,2.06-.67,2.55s0,2.2,2,1.75c.37-.52,0-.88-.42-1.23s-.22-1.06-.12-1.46S3.15,26.51,2.92,26.58Z"/><path class="cls-2" d="M2,31.34c.37.36.94.74,1.18.46a.57.57,0,0,1-.29.71A1.19,1.19,0,0,1,2,31.39"/><path class="cls-2" d="M4.11,32.86c-1,.88-1.31.46-2.1-.41.17.66.83,1.91,2.1,1.42.7-.3.88-.6,1.35-.45h0c.2,0,.14-.27.07-.52S5.07,32,4.11,32.86Z"/><path class="cls-2" d="M15.6,20.4s-.06,1.52-.44,1.89A24.88,24.88,0,0,0,12,27.93c-.06.68,1.37-1.28,1.72-1.73a2,2,0,0,0,.59-1.4,3.3,3.3,0,0,1,.65-1.59A5.14,5.14,0,0,0,15.6,20.4Z"/><path class="cls-2" d="M10.08,16.22c-1.08.19-.45,1,1.11,1.1s2.66.78,2.85,1.27.27,1,1.15,1.1c.87-.65.41-3-1.89-3.28S11.19,16,10.08,16.22Z"/><path class="cls-2" d="M13.61,30a3.47,3.47,0,0,0-1,2.29c.13.37.5-.21,1-.93,1.4-2.15,7.37-2.47,9.64-1.7.65.81,1.16,2,1.34,1.55a2.09,2.09,0,0,0-1.11-1.93C22.85,29.08,15.45,28.72,13.61,30Z"/><path class="cls-2" d="M20.54,30.36c.3-.07.19.51,0,.67s-1,.57-.12.89a9,9,0,0,0-3.58.46c-.17-.39-.65-1.31-.25-1.61A26.72,26.72,0,0,0,20.54,30.36Z"/><path class="cls-2" d="M23.62,36.8c-2.88-1.4-8.48,1-11.16,3.3a6.1,6.1,0,0,1-2.25-2c.49.16,2.78-2.6,1.63-4S7.64,32.5,7,31.25a3,3,0,0,1-.49-1.94c-.17-.92,1.76-1.35-.08-3.19s-2-5.26-.19-8.52,0-4.21-1.61-5.11c-.52.6-.18,10.5-.46,11.79C3.55,27,5.68,33.18,6,33.7l0,.1v0l0,.07,0,.05,0,.06,0,.05,0,.07,0,0,0,.07,0,.06a.16.16,0,0,1,0,.07l0,0,0,.08,0,.05,0,.08,0,.06,0,.07,0,.06,0,.08,0,.06,0,.07,0,.07.06.07,0,.06,0,.08,0,.06.06.08,0,.06.06.07,0,.06.06.08,0,.05.06.08,0,0L7.4,36l0,0,0,.08,0,0,.06.08,0,0,.06.07,0,0,0,.07,0,0,0,.06,0,0,0,.06,0,0,0,.06,0,0,0,0,0,0h0l.16.2h0l0,0h0l0,0c.09.1,2.49,7.38,2.49,7.38,9,4.46,14.19-3.13,14.85-5.24C25.64,39.27,26.49,38.21,23.62,36.8Z"/><path class="cls-2" d="M25.76,18.85c-.19-.18-.5-.38-.52-.52a1.25,1.25,0,0,0-.69-.91,2.57,2.57,0,0,0-.37-.16s.12.8,0,.95a4.6,4.6,0,0,1-1.9.13c-.21-.11-.19-.72-.09-1.05a9.48,9.48,0,0,0-.92.29c-.28.08-.42,0-.43,0a3,3,0,0,0-.66.49c-.34.4-.27,1-1.14,1.11-.87-.65-.43-3,1.89-3.28.29,0,1.49.55,1.26.84a3.83,3.83,0,0,1-.92.59c.71-.12,2.68-.74,3.75.21s.75,1,1.08,1.25S25.94,19,25.76,18.85Z"/><path class="cls-2" d="M12.32,18.73c-.5,0-2.76.33-3.63,1.52a9.9,9.9,0,0,0-1.1,1.64c-.17.34,0,.51.43,0a6.24,6.24,0,0,1,1.33-1.24c.42-.24.08-.7.76-1.06-.06.34,0,.72.23.76s1.66-.32,1.77-.3c.21-.24-.12-.92-.13-.94l.09,0C12.75,19.34,12.81,18.77,12.32,18.73Z"/><path class="cls-2" d="M20.73,23.33c-.23-.88-1.37-.59-2.15-.3h0c0,.07-.18.13-.42.16l-.11,0c-.24.1-.43.1-.56,0a1.69,1.69,0,0,1-.9-.3c-.45-.35-2.32,2.06-2.26,2.43a1.66,1.66,0,0,0,.75,1c.28.1,4.17.19,4.35-.11a1.86,1.86,0,0,1,1.27-.93c.55,0,.66-1,.64-1.39C21.26,24,21,24.45,20.73,23.33Z"/><path class="cls-2" d="M31.39,21.44c.24-.74,1-1.46,1.16,0a8.87,8.87,0,0,1,0,2.67A21,21,0,0,0,31.39,21.44Z"/><path class="cls-5" d="M31.32,18.9c-.08-.67.11-5.65-1.14-7.68s-1.66-4.49-2.26-5.6S22.5,0,19.3,1.2C18.29.08,7-2,2.89,4.64A6.22,6.22,0,0,0,2,9.37c-1.76,1.76-2,5.35-2,7.19S2.08,23,2,23.87c0,0,.54-.07.62.36s.86.7,1.09.37S5,18.08,5.2,17.39a14.41,14.41,0,0,0-.6-4.9c-.27-.19-.65-1.2-.37-1.19.57,0,2.73-.4,3.13-2.22s1.9-5.24,4.31-5.4C10.15,5,9.22,8,9.08,8.47a3.9,3.9,0,0,1,.46-1.06c1.25-1.7,7.91-2.78,10-2.3s4.18,3.15,6.84,6.74a6.26,6.26,0,0,1,1.51,3.3,6.69,6.69,0,0,1,.32.71c.23.65,1.42,4,1.73,4.61s.56,1.74.93,1.63.41-1.82.49-3C31.31,19.06,31.34,19,31.32,18.9Z"/><path class="cls-2" d="M30.64,29.78c.61.45,2,.92,2.25-.09-.71.39-1.6-.27-2.21-.75A3,3,0,0,0,30.64,29.78Z"/><path class="cls-2" d="M10.71,45.08s.17-.13.29.13a8.47,8.47,0,0,1,.55,2.36c-.13.22-1.18.09-1.18.09L9.83,46Z"/><path class="cls-1" d="M19.06,48.59l3.3-1.76,7.93,3.06s3.28-7,2.82-8.06a4.91,4.91,0,0,1-.31-1l-.25-.05c-.6-1.1-1.1-2.46-1.73-2.47h-.73c.25.08.48.37-.29,1.37-1.18,1.55-7.82,6.74-9.66,7.85C19,48.18,18.83,48.55,19.06,48.59Z"/><path class="cls-1" d="M14.9,49.15c.51.16.8.37,1.26.11C16,49,14,48.55,11.49,47.55s-.74-2.24-.49-2.34a6.48,6.48,0,0,0-.21-.7,2.62,2.62,0,0,0-1.57,2.86A14.15,14.15,0,0,1,9.43,50h1.15a3.3,3.3,0,0,1,.72-1.24C11.85,48.24,14.38,49,14.9,49.15Z"/><path class="cls-4" d="M26.21,48.32l-3.85-1.49L19.42,48.4c-.13.12-.26.21-.36.19a8.54,8.54,0,0,0-2.9.67c-.46.26-.75.05-1.26-.11s-3.05-.91-3.6-.39a1.73,1.73,0,0,0-.24.3,18.23,18.23,0,0,1,2,.94h10A28,28,0,0,0,26.21,48.32Z"/><path class="cls-2" d="M30.59,38.32h0Z"/><path class="cls-2" d="M30.38,38.32h0Z"/><path class="cls-2" d="M11.19,48.88l0,0Z"/><path class="cls-2" d="M40.91,44.83A10.43,10.43,0,0,0,38,43.72a9.29,9.29,0,0,1-3.33-2c-.23-.48-1.18-.68-2.09-.88l.25.05a4.91,4.91,0,0,0,.31,1c.46,1-2.82,8.06-2.82,8.06l-4.08-1.57A28,28,0,0,1,23.13,50H43.07V44.83S41.73,44.77,40.91,44.83Z"/><path class="cls-2" d="M11.06,49.06l.1-.14Z"/><path class="cls-2" d="M10.58,50H13.1a18.23,18.23,0,0,0-2-.94A2.89,2.89,0,0,0,10.58,50Z"/><path class="cls-2" d="M9.22,47.37a17,17,0,0,0-2,2.63H9.43A14.15,14.15,0,0,0,9.22,47.37Z"/></g></g></svg>