<svg xmlns="http://www.w3.org/2000/svg" viewBox="0 0 40.23 50"><defs><style>.cls-1{fill:#782b90;}.cls-2{fill:#ee2956;}.cls-3{fill:#f9c915;}</style></defs><title>Asset 15</title><g id="Layer_2" data-name="Layer 2"><g id="Isolation_Mode" data-name="Isolation Mode"><path class="cls-1" d="M20,12.77a9.28,9.28,0,0,1,5.64,1.46,5.29,5.29,0,0,1,1.94,4.51,7.77,7.77,0,0,1-.44,2.61A10.77,10.77,0,0,1,26,23.6a12.27,12.27,0,0,1-1.54,1.87A17,17,0,0,1,22.8,26.9l1.29,0A6.65,6.65,0,0,0,25,26.8a2.18,2.18,0,0,0,.62-.18,1.54,1.54,0,0,0,.44-.33,4.21,4.21,0,0,0,.36-.54c.11-.22.24-.47.39-.78h.66L27,28.25H21.47v-.51a16.09,16.09,0,0,0,1.58-1.88,9.8,9.8,0,0,0,1.09-1.94,10.12,10.12,0,0,0,.64-2.19,16.38,16.38,0,0,0,.2-2.66,12.43,12.43,0,0,0-.21-2.39A4.44,4.44,0,0,0,24,14.87a3.62,3.62,0,0,0-1.54-1.15A6.68,6.68,0,0,0,20,13.33a6.68,6.68,0,0,0-2.48.39A3.62,3.62,0,0,0,16,14.87a4.44,4.44,0,0,0-.77,1.81A12.43,12.43,0,0,0,15,19.07a16.38,16.38,0,0,0,.2,2.66,10.1,10.1,0,0,0,.63,2.19,10.39,10.39,0,0,0,1.1,1.94,17.14,17.14,0,0,0,1.58,1.88v.51H12.94L12.51,25h.66c.14.31.27.56.39.78a4.21,4.21,0,0,0,.36.54,1.54,1.54,0,0,0,.44.33,2.29,2.29,0,0,0,.62.18,6.66,6.66,0,0,0,.9.08l1.29,0a17,17,0,0,1-1.66-1.43A12.27,12.27,0,0,1,14,23.6a10.77,10.77,0,0,1-1.13-2.25,7.77,7.77,0,0,1-.44-2.61,5.31,5.31,0,0,1,1.94-4.51A9.28,9.28,0,0,1,20,12.77Z"/><polygon class="cls-2" points="27.85 34.17 31.95 30.05 31.95 28.64 37.19 26.01 37.19 29.18 33.09 30.81 33.09 31.54 27.85 34.17"/><polygon class="cls-3" points="27.85 36.06 33.66 36.05 34.66 35.04 40.23 36.89 37.99 39.13 33.93 37.39 33.41 37.9 27.85 36.06"/><polygon class="cls-2" points="27.41 38.55 32.41 41.51 33.79 41.15 37.63 45.58 34.56 46.36 31.96 42.79 31.25 42.98 27.41 38.55"/><polygon class="cls-3" points="22.15 42.19 27.15 45.14 28.52 44.79 32.37 49.22 29.3 50 26.7 46.43 25.99 46.61 22.15 42.19"/><polygon class="cls-2" points="12.38 34.17 8.28 30.05 8.28 28.64 3.04 26.01 3.04 29.18 7.14 30.81 7.14 31.54 12.38 34.17"/><polygon class="cls-3" points="12.38 36.06 6.57 36.05 5.56 35.04 0 36.89 2.24 39.13 6.3 37.39 6.82 37.9 12.38 36.06"/><polygon class="cls-2" points="12.82 38.55 7.82 41.51 6.44 41.15 2.6 45.58 5.67 46.36 8.27 42.79 8.97 42.98 12.82 38.55"/><polygon class="cls-3" points="18.91 42.19 13.9 45.14 12.53 44.79 8.68 49.22 11.76 50 14.36 46.43 15.06 46.61 18.91 42.19"/><polygon class="cls-1" points="20.53 31.89 12.82 37.2 28.23 37.2 20.53 31.89"/><polygon class="cls-3" points="19.98 17.83 20.64 19.88 22.79 19.88 21.05 21.14 21.72 23.19 19.98 21.92 18.24 23.19 18.91 21.14 17.17 19.88 19.32 19.88 19.98 17.83"/><path class="cls-3" d="M6.59,15.3v6.4H8a.82.82,0,0,1,.82.83v1.78a.82.82,0,0,1-.82.82H7.18A3.43,3.43,0,0,1,3.75,21.7V15.3a3.45,3.45,0,0,1,3.43-3.43H8a.82.82,0,0,1,.82.83v1.78A.82.82,0,0,1,8,15.3Z"/><path class="cls-1" d="M7.74,0A6.8,6.8,0,0,0,1.6,3.88C1,5.24,1,7.18,1.78,6.66a6.22,6.22,0,0,1,11.91,0c.51.44.81-.75.18-2.78A6.78,6.78,0,0,0,7.74,0Z"/><path class="cls-1" d="M7.73,3.84a4.37,4.37,0,0,0-4,2.5c-.39.88-.37,2.14.11,1.8a4,4,0,0,1,7.69,0c.33.28.52-.49.12-1.8A4.4,4.4,0,0,0,7.73,3.84Z"/><path class="cls-1" d="M7.72,6.75A2.58,2.58,0,0,0,5.39,8.22c-.23.52-.21,1.26.07,1.06a2.36,2.36,0,0,1,4.52,0c.19.17.3-.29.06-1.06A2.56,2.56,0,0,0,7.72,6.75Z"/><circle class="cls-1" cx="7.71" cy="9.55" r="1.08"/></g></g></svg>