<svg xmlns="http://www.w3.org/2000/svg" viewBox="0 0 50 50"><defs><style>.cls-1{fill:#782b90;}.cls-2{fill:#f9c915;}.cls-3{fill:#ee2956;}</style></defs><title>Artboard 6</title><g id="Isolation_Mode" data-name="Isolation Mode"><path class="cls-1" d="M50,47.21H1.33V14.1C1,12.43.81,10.51,0,10.05a2.23,2.23,0,0,1,.94-1.6,3.07,3.07,0,0,1,.49-1.51,4.89,4.89,0,0,1-.61-2.3C.61,4.21,1,3.5,1.33,2.79A3.92,3.92,0,0,0,5,2.79l6.28,1.3c.18.89,1,.9,2,.6a2.08,2.08,0,0,0,2.16.7c2.22.94,4.43,1.82,5.8-.44,2.65-1.14,4.71-2.82,9.87-.53a4.2,4.2,0,0,0,4.38,1,7.2,7.2,0,0,0,3.67-1l2.13,5.78a7.75,7.75,0,0,1,.69,2.92A3.8,3.8,0,0,0,41,15l-.19,1.74A4.25,4.25,0,0,0,40.06,19c.16.56-.32,1.4-.73,2.22-1.23-.34-2.5-1.78-3.78-3.46A1.15,1.15,0,0,1,35,16.72c.25-.88-.54-1.64-1.29-2.42a9.36,9.36,0,0,0-1.17-2.84c0-.29-.11-.49-.46-.59a3.67,3.67,0,0,1-.56,1.51,6.2,6.2,0,0,1,1.31,2.47A9.27,9.27,0,0,0,35,18.91l3.3,6.22c.26,3.26,3.6,8.21,7,13.2C43.21,42.15,46.89,44.61,50,47.21Z"/><path class="cls-2" d="M35.71,26.38a13.85,13.85,0,0,0-3.1-6.92A17,17,0,0,0,4.27,23.1c-1.36,3.1-1.41,7.4,0,7.16C9,30.67,13.17,33,17,36.41a2.66,2.66,0,0,1,2.54-1.81,2.71,2.71,0,0,1,2.64,2,27.94,27.94,0,0,1,13-6.34l0,0C35.73,30,36,28.6,35.71,26.38Zm-3.45,2.87,0,0a22.9,22.9,0,0,0-10.61,5.16,2.21,2.21,0,0,0-2.14-1.62,2.15,2.15,0,0,0-2.07,1.47c-3.11-2.82-6.52-4.67-10.36-5C6,29.48,6,26,7.11,23.45a13.83,13.83,0,0,1,23.07-3,11.21,11.21,0,0,1,2.53,5.63C33,27.93,32.72,29.06,32.26,29.25Z"/><path class="cls-3" d="M19.59,28.29l-5.87,5.87-3.34-3.34L16.25,25l-5.84-5.84,3.24-3.23,5.83,5.83,5.87-5.87,3.34,3.34-5.87,5.87,5.84,5.84-3.24,3.23Z"/><path class="cls-2" d="M5.12,44.3,3.84,41.09l-.18-.57h0l0,.61V44.3H3.07V39.85H4l1.29,3.2.21.64h0l0-.65V39.85h.62V44.3Z"/><path class="cls-2" d="M8.32,44.36c-1,0-1.47-.64-1.47-1.74s.55-1.84,1.52-1.84,1.45.66,1.45,1.8S9.26,44.36,8.32,44.36Zm0-3c-.7,0-.84.64-.84,1.27s.17,1.24.85,1.24.8-.6.8-1.25S9.05,41.32,8.35,41.32Z"/><path class="cls-2" d="M13.3,44.3v-.55h1.17V41.37H13.4v-.51h1.72v2.89h1.14v.55Zm1.49-4-.51-.51.51-.51.51.51Z"/><path class="cls-2" d="M19.14,44.3V42.19c0-.56-.06-.84-.58-.84a1.61,1.61,0,0,0-.87.36V44.3H17V40.86h.66v.38a1.59,1.59,0,0,1,1.06-.46c1,0,1,.68,1,1.32v2.2Z"/><path class="cls-2" d="M22.68,44.35c-.64,0-1.3-.05-1.3-1v-2h-.76v-.52h.76v-.7H22v.7h1.65v.52H22v1.91c0,.41.21.5.66.5a3.38,3.38,0,0,0,1-.15l.09.51A3.52,3.52,0,0,1,22.68,44.35Z"/><path class="cls-2" d="M25.2,42.78c0,.89.51,1,1.1,1a5.52,5.52,0,0,0,.93-.1l.09.51a3.64,3.64,0,0,1-1.13.15c-1,0-1.65-.38-1.65-1.71s.64-1.86,1.56-1.86,1.28.66,1.28,1.77v.23ZM26,41.29c-.44,0-.76.32-.81,1H26.7C26.7,41.64,26.47,41.29,26,41.29Z"/><path class="cls-2" d="M31.31,41.54a1.61,1.61,0,0,0-.67-.17,1.2,1.2,0,0,0-.88.43v2H31v.55H28.24v-.55h.86V41.38h-.86v-.52h1.52v.44a1.21,1.21,0,0,1,1-.5,1.49,1.49,0,0,1,.72.18Z"/><path class="cls-2" d="M34.24,44.3V42.19c0-.56-.05-.84-.58-.84a1.61,1.61,0,0,0-.87.36V44.3h-.65V40.86h.65v.38a1.59,1.59,0,0,1,1.06-.46c1,0,1,.68,1,1.32v2.2Z"/><path class="cls-2" d="M36.53,42.78c0,.89.51,1,1.1,1a5.51,5.51,0,0,0,.92-.1l.1.51a3.71,3.71,0,0,1-1.14.15c-1,0-1.64-.38-1.64-1.71s.64-1.86,1.56-1.86,1.27.66,1.27,1.77v.23Zm.81-1.49c-.43,0-.75.32-.8,1H38C38,41.64,37.79,41.29,37.34,41.29Z"/><path class="cls-2" d="M41.56,44.35c-.64,0-1.31-.05-1.31-1v-2h-.76v-.52h.76v-.7h.65v.7h1.65v.52H40.9v1.91c0,.41.21.5.65.5a3.46,3.46,0,0,0,1-.15l.09.51A3.52,3.52,0,0,1,41.56,44.35Z"/></g></svg>