<svg xmlns="http://www.w3.org/2000/svg" viewBox="0 0 50 51.47"><defs><style>.cls-1{fill:#ee2956;}.cls-2{fill:#b12078;}.cls-3{fill:#f9c915;}.cls-4{fill:#782b90;}</style></defs><title>Asset 14</title><g id="Layer_2" data-name="Layer 2"><g id="Isolation_Mode" data-name="Isolation Mode"><path class="cls-1" d="M49,12.23C54.25-7,17-1.52,22.31,14.86c-.73.74-3.14,4.34-2,5.15.54.36,2.3,0,2.16,1.15a9.28,9.28,0,0,0,.05,2.56,3.37,3.37,0,0,1,2.19-.8,3.4,3.4,0,0,1,1.5,6.46l.41.26a2.23,2.23,0,0,1,1.13,2.28c0,.72,1.5,3,6.3.64l1.39,6.57S43.71,26.91,50,30.07C47.81,28.27,44.59,22.6,49,12.23Z"/><path class="cls-2" d="M46.94,23.82h0a23.63,23.63,0,0,1-5.07-.67c-1.9,2.41-1.39,7.33.24,8.78h0C44.62,30,47.47,28.8,50,30.07A9.77,9.77,0,0,1,46.94,23.82Z"/><path class="cls-3" d="M46.94,23.82c-.39-2.88,0-6.72,2.08-11.59C52.72-1.4,35.19-2.63,26.47,3.6A12,12,0,0,0,23,7.25L23,7.33c-.12.52,4.46,0,5.21.08s-.64,1.16-.45,4.53c2.05,1.65,1.89,5.79,1.89,5.79l2.17.07c.61-2.18,3.11-3.8,5.36-4.39s1.86,3.8,0,6.16c.07,4,9.79,4.25,9.79,4.25Z"/><path class="cls-4" d="M35.86,16.68c0-.36,1.48-.1,1.06.92a1.25,1.25,0,0,1-.93.7c-1.32.25-1,.95-1.34,1s-.43-2.27.24-2.19S36,17,35.86,16.68Z"/><path class="cls-4" d="M10.6,26.88a7.18,7.18,0,0,0,4.09,6.47c1.43.63,3.48.59,2.94-.19a6.56,6.56,0,0,1,0-12.56c.46-.54-.8-.85-2.94-.18A7.15,7.15,0,0,0,10.6,26.88Z"/><path class="cls-4" d="M14.65,26.89a4.64,4.64,0,0,0,2.64,4.18c.92.4,2.25.38,1.89-.12a4.24,4.24,0,0,1,0-8.11c.3-.35-.51-.55-1.89-.12A4.62,4.62,0,0,0,14.65,26.89Z"/><path class="cls-4" d="M17.72,26.9a2.72,2.72,0,0,0,1.55,2.45c.55.24,1.32.23,1.12-.07a2.48,2.48,0,0,1,0-4.76c.17-.21-.31-.32-1.12-.07A2.73,2.73,0,0,0,17.72,26.9Z"/><circle class="cls-4" cx="20.67" cy="26.91" r="1.14"/><path class="cls-3" d="M5.23,10.69V22.48H7.77A1.52,1.52,0,0,1,9.29,24v3.28A1.52,1.52,0,0,1,7.77,28.8H6.32A6.32,6.32,0,0,1,0,22.48V10.69A6.33,6.33,0,0,1,6.32,4.37H7.77A1.52,1.52,0,0,1,9.29,5.89V9.17a1.52,1.52,0,0,1-1.52,1.52Z"/><path class="cls-4" d="M4.27,49a6.19,6.19,0,0,1-2.44-.42l.35-1a6.06,6.06,0,0,0,2.07.36c.9,0,1.79-.26,1.79-1.23,0-1.86-4-1.41-4-4.2,0-1.56,1.28-2.12,2.68-2.12a5.11,5.11,0,0,1,2.17.42l-.37,1a5.2,5.2,0,0,0-1.76-.34c-.9,0-1.48.28-1.48,1,0,1.74,4.09,1.47,4.09,4.18C7.33,48.36,5.94,49,4.27,49Z"/><path class="cls-4" d="M14.58,48.9c-.65,0-1.5-.12-1.63-.78a2.73,2.73,0,0,1-2,.81A1.72,1.72,0,0,1,9,47.06c0-1.62,1.46-1.94,2.59-2l1.22,0v-.8c0-.9-.47-1.07-1.53-1.07a5.83,5.83,0,0,0-1.56.28l-.25-1a5.81,5.81,0,0,1,2.09-.39c1.34,0,2.47.29,2.47,1.81v3.47c0,.41.28.49.59.51Zm-1.74-3-1.19.05c-1.09,0-1.4.52-1.4,1,0,.72.35,1,1,1a3.84,3.84,0,0,0,1.62-.56Z"/><path class="cls-4" d="M18.75,51.47H17.57l1-2.63H18l-2.14-6.55h1.3l1.7,5.59h.05l1.94-5.59h1.24Z"/><path class="cls-4" d="M32.05,48.84l-2.44-6.12-.34-1.09h0l.09,1.16v6.05H28.14V40.36h1.69l2.46,6.1.41,1.21h0l-.09-1.23V40.36h1.2v8.48Z"/><path class="cls-4" d="M38.15,49c-1.92,0-2.81-1.22-2.81-3.33s1.06-3.5,2.91-3.5c2,0,2.77,1.26,2.77,3.43S40,49,38.15,49Zm.06-5.81c-1.34,0-1.59,1.24-1.59,2.42s.31,2.37,1.61,2.37,1.52-1.13,1.52-2.38S39.55,43.15,38.21,43.15Z"/><path class="cls-4" d="M47.69,48.84H46.2l-.81-4.71h0l-1,4.71H42.93l-.76-6.55h1.14l.45,5.6h0l1-4.57H46l.83,4.57h0l.64-5.6h1.09Z"/></g></g></svg>