<svg xmlns="http://www.w3.org/2000/svg" viewBox="0 0 50 44.42"><defs><style>.cls-1{fill:#782b90;}.cls-2,.cls-4{fill:#f9c915;}.cls-3{fill:#ee2956;}.cls-4{font-size:6.29px;font-family:FedraMono-Normal, Fedra Mono Normal;}.cls-5{letter-spacing:-0.2em;}</style></defs><title>Asset 13</title><g id="Layer_2" data-name="Layer 2"><g id="Isolation_Mode" data-name="Isolation Mode"><path class="cls-1" d="M50,44.42H1.33V11.32C1,9.64.81,7.72,0,7.26a2.25,2.25,0,0,1,.94-1.6,3.07,3.07,0,0,1,.49-1.51,4.89,4.89,0,0,1-.61-2.3C.61,1.42,1,.71,1.33,0A3.92,3.92,0,0,0,5,0l6.28,1.31c.18.88,1,.9,2,.59a2.08,2.08,0,0,0,2.16.7c2.22.94,4.43,1.82,5.8-.44C23.83,1,25.89-.65,31.05,1.64a4.22,4.22,0,0,0,4.38.94,7.2,7.2,0,0,0,3.67-1l2.13,5.79a7.66,7.66,0,0,1,.69,2.91,3.8,3.8,0,0,0-.9,1.89l-.19,1.74a4.28,4.28,0,0,0-.77,2.35c.16.55-.32,1.39-.73,2.21-1.23-.34-2.5-1.78-3.78-3.45A1.18,1.18,0,0,1,35,13.93c.25-.88-.54-1.64-1.29-2.41a9.43,9.43,0,0,0-1.17-2.85c0-.29-.11-.49-.46-.59a3.67,3.67,0,0,1-.56,1.51,6.2,6.2,0,0,1,1.31,2.47A9.27,9.27,0,0,0,35,16.12l3.3,6.23c.26,3.26,3.6,8.21,7,13.2C43.21,39.36,46.89,41.82,50,44.42Z"/><path class="cls-2" d="M35.71,23.59a13.78,13.78,0,0,0-3.1-6.91A17,17,0,0,0,4.27,20.31c-1.36,3.1-1.41,7.4,0,7.17,4.72.4,8.91,2.68,12.72,6.14a2.66,2.66,0,0,1,2.54-1.81,2.72,2.72,0,0,1,2.64,2,28,28,0,0,1,13-6.34l0,0C35.73,27.2,36,25.81,35.71,23.59Zm-3.45,2.87,0,0a22.78,22.78,0,0,0-10.61,5.15A2.21,2.21,0,0,0,19.53,30a2.15,2.15,0,0,0-2.07,1.47c-3.11-2.82-6.52-4.67-10.36-5-1.15.19-1.11-3.31,0-5.84a13.83,13.83,0,0,1,23.07-3,11.2,11.2,0,0,1,2.53,5.64C33,25.14,32.72,26.27,32.26,26.46Z"/><path class="cls-3" d="M19.59,25.5l-5.87,5.87L10.38,28l5.87-5.87-5.84-5.84,3.24-3.23,5.83,5.83,5.87-5.87,3.34,3.35-5.87,5.87,5.84,5.83-3.24,3.23Z"/><text class="cls-4" transform="translate(2.68 41.51)">No<tspan class="cls-5" x="7.55" y="0"> </tspan><tspan x="10.07" y="0">internet</tspan></text></g></g></svg>