<svg xmlns="http://www.w3.org/2000/svg" viewBox="0 0 50 38.78"><defs><style>.cls-1{fill:#f9c915;}.cls-2{fill:#782b90;}.cls-3{fill:#ee2956;}</style></defs><title>Asset 16</title><g id="Layer_2" data-name="Layer 2"><g id="Isolation_Mode" data-name="Isolation Mode"><path class="cls-1" d="M37.51,1.23v5c0,1.1-.68,5.47-1.39,6.19,0,0-2.42,3.51-4.7,3.51s-4.7-3.51-4.7-3.51c-.72-.72-1.4-5.09-1.4-6.19v-5A14.35,14.35,0,0,1,31.42,0,14.3,14.3,0,0,1,37.51,1.23Z"/><ellipse class="cls-2" cx="34.36" cy="5.84" rx="1.58" ry="0.54"/><ellipse class="cls-2" cx="28.57" cy="5.72" rx="1.58" ry="0.54"/><path class="cls-3" d="M36,9.24l-.74,1.14a1.4,1.4,0,0,1-1.15.71c-.9.11-2,.14-2,.14a2.37,2.37,0,0,0-.76-.89,2.48,2.48,0,0,0-.77.89s-1,0-1.94-.14a1.41,1.41,0,0,1-1.16-.71l-.74-1.14h.54c.51.73,1,1.35,1.52,1.25a1.24,1.24,0,0,0,1.65-.89,1.34,1.34,0,0,0,1.8,0,1.23,1.23,0,0,0,1.64.89c.5.1,1-.52,1.53-1.25Z"/><path class="cls-3" d="M32.07,13.86l-.46,2.08-.19,0-.29,0h0l-.39-2.06.24-.8-.47-.59a6.56,6.56,0,0,0,1.77,0l-.4.51Z"/><path class="cls-1" d="M30.5,12.48h0Z"/><path class="cls-1" d="M32.28,12.48h0Z"/><path class="cls-3" d="M32.08,4.25c1.05-1.61,4.18-2.21,4.68-.57-1.32-.77-4.07.75-4.28.89S31.73,4.8,32.08,4.25Z"/><path class="cls-3" d="M30.59,4.25C29.54,2.64,26.42,2,25.92,3.68c1.32-.77,4.07.75,4.28.89S31,4.8,30.59,4.25Z"/><path class="cls-2" d="M26.54,5.77c-.58,0-.88-.78-.93-.91C25.32,4.85,25.63,6,26.54,5.77Z"/><path class="cls-2" d="M26.17,5.8a.85.85,0,0,0-.71.39A7.83,7.83,0,0,1,26.17,5.8Z"/><path class="cls-2" d="M36.28,5.77c.58,0,.88-.78.93-.91C37.5,4.85,37.18,6,36.28,5.77Z"/><path class="cls-2" d="M36.64,5.8a.86.86,0,0,1,.72.39A7,7,0,0,0,36.64,5.8Z"/><path class="cls-2" d="M27.76,9.17h0a3.61,3.61,0,0,0,1.52-.64c0-.07.17-.42.37-.49,0,0,.11,0,.09.08s-.16.21-.36.57l0,0C28.65,9.2,27.42,9.42,27.76,9.17Z"/><path class="cls-2" d="M34.94,9.17h0a3.55,3.55,0,0,1-1.52-.64c0-.07-.18-.42-.37-.49a.07.07,0,0,0-.09.08c0,.13.16.21.35.57l0,0C34.06,9.2,35.28,9.42,34.94,9.17Z"/><path class="cls-2" d="M36.33,9.36c0,.74-2.46,4.41-2.61,4.55.29.05,3-3.95,2.92-4.76A.59.59,0,0,1,36.33,9.36Z"/><path class="cls-2" d="M26.59,9.46c0,.74,2.45,4.41,2.61,4.55-.3.05-3-3.95-2.93-4.76A.59.59,0,0,0,26.59,9.46Z"/><path class="cls-1" d="M24.91,1.23v5c0,1.1-.68,5.47-1.4,6.19,0,0-2.42,3.51-4.7,3.51s-4.69-3.51-4.69-3.51c-.72-.72-1.4-5.09-1.4-6.19v-5A14.3,14.3,0,0,1,18.81,0,14.32,14.32,0,0,1,24.91,1.23Z"/><ellipse class="cls-2" cx="21.76" cy="5.84" rx="1.58" ry="0.54"/><ellipse class="cls-2" cx="15.97" cy="5.72" rx="1.58" ry="0.54"/><path class="cls-3" d="M23.42,9.24l-.74,1.14a1.4,1.4,0,0,1-1.15.71c-.9.11-2,.14-2,.14a2.48,2.48,0,0,0-.77-.89,2.56,2.56,0,0,0-.76.89s-1.05,0-1.95-.14A1.4,1.4,0,0,1,15,10.38l-.74-1.14h.53c.52.73,1,1.35,1.53,1.25a1.25,1.25,0,0,0,1.65-.89,1.32,1.32,0,0,0,1.79,0,1.25,1.25,0,0,0,1.65.89c.5.1,1-.52,1.52-1.25Z"/><path class="cls-3" d="M19.46,13.86,19,15.94a1.36,1.36,0,0,1-.2,0l-.28,0h0l-.39-2.06.23-.8-.46-.59a6.48,6.48,0,0,0,1.76,0l-.4.51Z"/><path class="cls-1" d="M17.9,12.48h0Z"/><path class="cls-1" d="M19.68,12.48h0Z"/><path class="cls-3" d="M19.48,4.25c1.05-1.61,4.18-2.21,4.68-.57-1.32-.77-4.08.75-4.29.89S19.13,4.8,19.48,4.25Z"/><path class="cls-3" d="M18,4.25c-1-1.61-4.17-2.21-4.68-.57,1.33-.77,4.08.75,4.29.89S18.35,4.8,18,4.25Z"/><path class="cls-2" d="M13.94,5.77c-.59,0-.88-.78-.93-.91C12.71,4.85,13,6,13.94,5.77Z"/><path class="cls-2" d="M13.57,5.8a.89.89,0,0,0-.72.39C12.92,6.19,13.38,5.84,13.57,5.8Z"/><path class="cls-2" d="M23.67,5.77c.59,0,.88-.78.93-.91C24.9,4.85,24.58,6,23.67,5.77Z"/><path class="cls-2" d="M24,5.8a.87.87,0,0,1,.72.39C24.69,6.19,24.24,5.84,24,5.8Z"/><path class="cls-2" d="M15.16,9.17h0a3.49,3.49,0,0,0,1.51-.64c0-.07.18-.42.38-.49a.07.07,0,0,1,.09.08c0,.13-.16.21-.36.57l0,0C16.05,9.2,14.82,9.42,15.16,9.17Z"/><path class="cls-2" d="M22.34,9.17h0a3.49,3.49,0,0,1-1.51-.64c0-.07-.18-.42-.38-.49a.07.07,0,0,0-.09.08c0,.13.17.21.36.57l0,0C21.46,9.2,22.68,9.42,22.34,9.17Z"/><path class="cls-2" d="M23.72,9.36c0,.74-2.45,4.41-2.6,4.55.29.05,3-3.95,2.92-4.76A.59.59,0,0,1,23.72,9.36Z"/><path class="cls-2" d="M14,9.46c0,.74,2.46,4.41,2.61,4.55-.29.05-3-3.95-2.92-4.76A.59.59,0,0,0,14,9.46Z"/><path class="cls-1" d="M31.3,12.81v5c0,1.11-.68,5.48-1.4,6.2,0,0-2.42,3.5-4.69,3.5s-4.7-3.5-4.7-3.5c-.72-.72-1.4-5.09-1.4-6.2v-5a14.62,14.62,0,0,1,6.1-1.23A14.61,14.61,0,0,1,31.3,12.81Z"/><ellipse class="cls-2" cx="28.15" cy="17.43" rx="1.58" ry="0.54"/><ellipse class="cls-2" cx="22.36" cy="17.3" rx="1.58" ry="0.54"/><path class="cls-3" d="M29.81,20.83,29.07,22a1.38,1.38,0,0,1-1.15.71c-.9.11-2,.15-2,.15a2.61,2.61,0,0,0-.76-.9,2.52,2.52,0,0,0-.77.9s-1.05,0-2-.15A1.38,1.38,0,0,1,21.34,22l-.74-1.13h.53c.52.72,1,1.34,1.53,1.25a1.24,1.24,0,0,0,1.65-.9,1.3,1.3,0,0,0,1.79,0,1.24,1.24,0,0,0,1.65.9c.5.09,1-.53,1.53-1.25Z"/><path class="cls-3" d="M25.85,25.44l-.45,2.08-.19,0a1.42,1.42,0,0,1-.29,0h0l-.39-2.06.24-.79-.47-.59a7.4,7.4,0,0,0,1.76,0l-.4.5Z"/><path class="cls-1" d="M24.29,24.07h0Z"/><path class="cls-1" d="M26.07,24.07h0Z"/><path class="cls-3" d="M25.87,15.84c1.05-1.61,4.18-2.22,4.68-.58-1.32-.77-4.08.76-4.29.9S25.52,16.38,25.87,15.84Z"/><path class="cls-3" d="M24.38,15.84c-1.05-1.61-4.17-2.22-4.68-.58,1.33-.77,4.08.76,4.29.9S24.74,16.38,24.38,15.84Z"/><path class="cls-2" d="M20.33,17.35c-.58,0-.88-.78-.93-.9C19.1,16.44,19.42,17.56,20.33,17.35Z"/><path class="cls-2" d="M20,17.38a.92.92,0,0,0-.72.39C19.31,17.77,19.77,17.43,20,17.38Z"/><path class="cls-2" d="M30.07,17.35c.58,0,.88-.78.93-.9C31.29,16.44,31,17.56,30.07,17.35Z"/><path class="cls-2" d="M30.43,17.38a.88.88,0,0,1,.72.39C31.09,17.77,30.63,17.43,30.43,17.38Z"/><path class="cls-2" d="M21.55,20.76l0,0a3.61,3.61,0,0,0,1.52-.64c0-.07.17-.42.37-.49a.07.07,0,0,1,.09.09c0,.13-.16.2-.36.56,0,0,0,0,0,0C22.44,20.78,21.21,21,21.55,20.76Z"/><path class="cls-2" d="M28.73,20.76l0,0a3.55,3.55,0,0,1-1.52-.64c0-.07-.18-.42-.38-.49s-.1,0-.09.09.17.2.36.56l0,0C27.85,20.78,29.07,21,28.73,20.76Z"/><path class="cls-2" d="M30.12,20.94c0,.75-2.46,4.41-2.61,4.55.29.05,3-3.95,2.92-4.75A.6.6,0,0,1,30.12,20.94Z"/><path class="cls-2" d="M20.37,21c0,.75,2.46,4.41,2.61,4.55-.29.05-3-3.95-2.92-4.75A.6.6,0,0,0,20.37,21Z"/><path class="cls-1" d="M43.9,12.81v5c0,1.11-.67,5.48-1.39,6.2,0,0-2.42,3.5-4.7,3.5s-4.7-3.5-4.7-3.5c-.72-.72-1.4-5.09-1.4-6.2v-5a14.66,14.66,0,0,1,6.1-1.23A14.57,14.57,0,0,1,43.9,12.81Z"/><ellipse class="cls-2" cx="40.76" cy="17.43" rx="1.58" ry="0.54"/><ellipse class="cls-2" cx="34.96" cy="17.3" rx="1.58" ry="0.54"/><path class="cls-3" d="M42.42,20.83,41.68,22a1.4,1.4,0,0,1-1.16.71c-.89.11-1.94.15-1.94.15a2.52,2.52,0,0,0-.77-.9,2.52,2.52,0,0,0-.77.9s-1,0-1.94-.15A1.38,1.38,0,0,1,33.94,22l-.74-1.13h.54c.51.72,1,1.34,1.52,1.25a1.24,1.24,0,0,0,1.65-.9,1.31,1.31,0,0,0,1.8,0,1.23,1.23,0,0,0,1.64.9c.5.09,1-.53,1.53-1.25Z"/><path class="cls-3" d="M38.46,25.44,38,27.52l-.19,0a1.42,1.42,0,0,1-.29,0h0l-.39-2.06.24-.79-.47-.59a7.49,7.49,0,0,0,1.77,0l-.4.5Z"/><path class="cls-1" d="M36.89,24.07h0Z"/><path class="cls-1" d="M38.67,24.07h0Z"/><path class="cls-3" d="M38.48,15.84c1.05-1.61,4.17-2.22,4.67-.58-1.32-.77-4.07.76-4.28.9S38.12,16.38,38.48,15.84Z"/><path class="cls-3" d="M37,15.84c-1.05-1.61-4.18-2.22-4.68-.58,1.32-.77,4.07.76,4.28.9S37.34,16.38,37,15.84Z"/><path class="cls-2" d="M32.93,17.35c-.58,0-.88-.78-.93-.9C31.71,16.44,32,17.56,32.93,17.35Z"/><path class="cls-2" d="M32.57,17.38a.88.88,0,0,0-.72.39C31.91,17.77,32.37,17.43,32.57,17.38Z"/><path class="cls-2" d="M42.67,17.35c.58,0,.88-.78.93-.9C43.89,16.44,43.58,17.56,42.67,17.35Z"/><path class="cls-2" d="M43,17.38a.88.88,0,0,1,.71.39C43.69,17.77,43.23,17.43,43,17.38Z"/><path class="cls-2" d="M34.16,20.76l0,0a3.61,3.61,0,0,0,1.52-.64c0-.07.17-.42.37-.49a.07.07,0,0,1,.09.09c0,.13-.16.2-.35.56,0,0,0,0,0,0C35,20.78,33.82,21,34.16,20.76Z"/><path class="cls-2" d="M41.33,20.76l0,0a3.55,3.55,0,0,1-1.52-.64c0-.07-.18-.42-.37-.49a.07.07,0,0,0-.09.09c0,.13.16.2.35.56,0,0,0,0,0,0C40.45,20.78,41.67,21,41.33,20.76Z"/><path class="cls-2" d="M42.72,20.94c0,.75-2.46,4.41-2.61,4.55.29.05,3-3.95,2.93-4.75A.65.65,0,0,1,42.72,20.94Z"/><path class="cls-2" d="M33,21c0,.75,2.45,4.41,2.61,4.55-.3.05-3-3.95-2.93-4.75A.61.61,0,0,0,33,21Z"/><path class="cls-1" d="M18.7,12.81v5c0,1.11-.68,5.48-1.4,6.2,0,0-2.42,3.5-4.7,3.5S7.9,24,7.9,24c-.71-.72-1.39-5.09-1.39-6.2v-5a14.61,14.61,0,0,1,6.09-1.23A14.66,14.66,0,0,1,18.7,12.81Z"/><ellipse class="cls-2" cx="15.55" cy="17.43" rx="1.58" ry="0.54"/><ellipse class="cls-2" cx="9.75" cy="17.3" rx="1.58" ry="0.54"/><path class="cls-3" d="M17.21,20.83,16.47,22a1.38,1.38,0,0,1-1.16.71c-.89.11-1.94.15-1.94.15a2.52,2.52,0,0,0-.77-.9,2.41,2.41,0,0,0-.76.9s-1.05,0-1.95-.15A1.38,1.38,0,0,1,8.74,22L8,20.83h.53c.52.72,1,1.34,1.53,1.25a1.23,1.23,0,0,0,1.64-.9,1.31,1.31,0,0,0,1.8,0,1.24,1.24,0,0,0,1.65.9c.5.09,1-.53,1.52-1.25Z"/><path class="cls-3" d="M13.25,25.44l-.45,2.08-.2,0a1.32,1.32,0,0,1-.28,0h0l-.4-2.06.24-.79-.47-.59a7.49,7.49,0,0,0,1.77,0l-.4.5Z"/><path class="cls-1" d="M11.69,24.07h0Z"/><path class="cls-1" d="M13.47,24.07h0Z"/><path class="cls-3" d="M13.27,15.84c1.05-1.61,4.18-2.22,4.68-.58-1.33-.77-4.08.76-4.29.9S12.91,16.38,13.27,15.84Z"/><path class="cls-3" d="M11.78,15.84c-1-1.61-4.18-2.22-4.68-.58,1.33-.77,4.08.76,4.29.9S12.14,16.38,11.78,15.84Z"/><path class="cls-2" d="M7.73,17.35c-.59,0-.88-.78-.93-.9C6.5,16.44,6.82,17.56,7.73,17.35Z"/><path class="cls-2" d="M7.36,17.38a.92.92,0,0,0-.72.39C6.71,17.77,7.16,17.43,7.36,17.38Z"/><path class="cls-2" d="M17.46,17.35c.59,0,.88-.78.93-.9C18.69,16.44,18.37,17.56,17.46,17.35Z"/><path class="cls-2" d="M17.83,17.38a.92.92,0,0,1,.72.39C18.48,17.77,18,17.43,17.83,17.38Z"/><path class="cls-2" d="M9,20.76l0,0a3.49,3.49,0,0,0,1.51-.64c0-.07.18-.42.38-.49,0,0,.1,0,.09.09s-.17.2-.36.56l0,0C9.83,20.78,8.61,21,9,20.76Z"/><path class="cls-2" d="M16.13,20.76l0,0a3.61,3.61,0,0,1-1.52-.64c0-.07-.17-.42-.37-.49,0,0-.1,0-.09.09s.16.2.36.56c0,0,0,0,0,0C15.24,20.78,16.47,21,16.13,20.76Z"/><path class="cls-2" d="M17.51,20.94c0,.75-2.45,4.41-2.61,4.55.3.05,3-3.95,2.93-4.75A.61.61,0,0,1,17.51,20.94Z"/><path class="cls-2" d="M7.77,21c0,.75,2.46,4.41,2.61,4.55-.29.05-3-3.95-2.93-4.75A.65.65,0,0,0,7.77,21Z"/><path class="cls-1" d="M24.79,24.05v5c0,1.1-.67,5.47-1.39,6.19,0,0-2.42,3.51-4.7,3.51S14,35.27,14,35.27c-.72-.72-1.4-5.09-1.4-6.19v-5a14.35,14.35,0,0,1,6.1-1.23A14.27,14.27,0,0,1,24.79,24.05Z"/><ellipse class="cls-2" cx="21.65" cy="28.66" rx="1.58" ry="0.54"/><ellipse class="cls-2" cx="15.85" cy="28.54" rx="1.58" ry="0.54"/><path class="cls-3" d="M23.31,32.06l-.74,1.13a1.43,1.43,0,0,1-1.16.72c-.89.1-1.94.14-1.94.14a2.39,2.39,0,0,0-.77-.89,2.39,2.39,0,0,0-.77.89s-1.05,0-1.94-.14a1.4,1.4,0,0,1-1.16-.72l-.74-1.13h.54c.51.73,1,1.34,1.52,1.25a1.24,1.24,0,0,0,1.65-.89,1.34,1.34,0,0,0,1.8,0,1.24,1.24,0,0,0,1.64.89c.5.09,1-.52,1.53-1.25Z"/><path class="cls-3" d="M19.35,36.68l-.46,2.08-.19,0-.29,0h0L18,36.69l.24-.79-.47-.59a7.49,7.49,0,0,0,1.77,0l-.4.51Z"/><path class="cls-1" d="M17.78,35.3h0Z"/><path class="cls-1" d="M19.56,35.3h0Z"/><path class="cls-3" d="M19.37,27.07c1.05-1.61,4.17-2.21,4.67-.57-1.32-.78-4.07.75-4.28.89S19,27.61,19.37,27.07Z"/><path class="cls-3" d="M17.88,27.07c-1.05-1.61-4.18-2.21-4.68-.57,1.32-.78,4.07.75,4.28.89S18.23,27.61,17.88,27.07Z"/><path class="cls-2" d="M13.82,28.59c-.58,0-.88-.78-.93-.91C12.6,27.67,12.92,28.8,13.82,28.59Z"/><path class="cls-2" d="M13.46,28.61a.89.89,0,0,0-.72.4C12.8,29,13.26,28.66,13.46,28.61Z"/><path class="cls-2" d="M23.56,28.59c.58,0,.88-.78.93-.91C24.78,27.67,24.47,28.8,23.56,28.59Z"/><path class="cls-2" d="M23.93,28.61a.88.88,0,0,1,.71.4C24.58,29,24.12,28.66,23.93,28.61Z"/><path class="cls-2" d="M15.05,32h0a3.55,3.55,0,0,0,1.52-.64c0-.08.17-.42.37-.5a.07.07,0,0,1,.09.09c0,.13-.16.2-.35.57l0,0C15.93,32,14.71,32.23,15.05,32Z"/><path class="cls-2" d="M22.22,32h0a3.55,3.55,0,0,1-1.52-.64c0-.08-.17-.42-.37-.5a.07.07,0,0,0-.09.09c0,.13.16.2.35.57l0,0C21.34,32,22.56,32.23,22.22,32Z"/><path class="cls-2" d="M23.61,32.17c0,.75-2.46,4.42-2.61,4.55.29.06,3-3.95,2.93-4.75A.65.65,0,0,1,23.61,32.17Z"/><path class="cls-2" d="M13.87,32.28c0,.74,2.45,4.41,2.61,4.55-.29.05-3-4-2.93-4.76A.59.59,0,0,0,13.87,32.28Z"/><path class="cls-1" d="M37.4,24.05v5c0,1.1-.68,5.47-1.4,6.19,0,0-2.42,3.51-4.7,3.51s-4.7-3.51-4.7-3.51c-.72-.72-1.39-5.09-1.39-6.19v-5a14.27,14.27,0,0,1,6.09-1.23A14.35,14.35,0,0,1,37.4,24.05Z"/><ellipse class="cls-2" cx="34.25" cy="28.66" rx="1.58" ry="0.54"/><ellipse class="cls-2" cx="28.45" cy="28.54" rx="1.58" ry="0.54"/><path class="cls-3" d="M35.91,32.06l-.74,1.13a1.4,1.4,0,0,1-1.16.72c-.89.1-1.94.14-1.94.14a2.39,2.39,0,0,0-.77-.89,2.39,2.39,0,0,0-.77.89s-1.05,0-1.94-.14a1.43,1.43,0,0,1-1.16-.72l-.74-1.13h.54c.52.73,1,1.34,1.53,1.25a1.24,1.24,0,0,0,1.64-.89,1.34,1.34,0,0,0,1.8,0,1.24,1.24,0,0,0,1.65.89c.5.09,1-.52,1.52-1.25Z"/><path class="cls-3" d="M32,36.68l-.46,2.08a1.11,1.11,0,0,1-.19,0l-.28,0h0l-.4-2.07.24-.79-.47-.59a7.49,7.49,0,0,0,1.77,0l-.4.51Z"/><path class="cls-1" d="M30.39,35.3h0Z"/><path class="cls-1" d="M32.17,35.3a0,0,0,0,1,0,0Z"/><path class="cls-3" d="M32,27.07c1.05-1.61,4.17-2.21,4.68-.57-1.33-.78-4.08.75-4.29.89S31.61,27.61,32,27.07Z"/><path class="cls-3" d="M30.48,27.07c-1.05-1.61-4.18-2.21-4.68-.57,1.32-.78,4.08.75,4.29.89S30.83,27.61,30.48,27.07Z"/><path class="cls-2" d="M26.43,28.59c-.59,0-.88-.78-.93-.91C25.2,27.67,25.52,28.8,26.43,28.59Z"/><path class="cls-2" d="M26.06,28.61a.9.9,0,0,0-.72.4C25.4,29,25.86,28.66,26.06,28.61Z"/><path class="cls-2" d="M36.16,28.59c.59,0,.88-.78.93-.91C37.39,27.67,37.07,28.8,36.16,28.59Z"/><path class="cls-2" d="M36.53,28.61a.92.92,0,0,1,.72.4C37.18,29,36.72,28.66,36.53,28.61Z"/><path class="cls-2" d="M27.65,32h0a3.55,3.55,0,0,0,1.52-.64c0-.08.18-.42.37-.5a.07.07,0,0,1,.09.09c0,.13-.16.2-.35.57l0,0C28.53,32,27.31,32.23,27.65,32Z"/><path class="cls-2" d="M34.83,32h0a3.61,3.61,0,0,1-1.52-.64c0-.08-.17-.42-.37-.5a.07.07,0,0,0-.09.09c0,.13.16.2.36.57a0,0,0,0,0,0,0C33.94,32,35.17,32.23,34.83,32Z"/><path class="cls-2" d="M36.21,32.17c0,.75-2.45,4.42-2.61,4.55.29.06,3-3.95,2.93-4.75A.61.61,0,0,1,36.21,32.17Z"/><path class="cls-2" d="M26.47,32.28c0,.74,2.46,4.41,2.61,4.55-.29.05-3-4-2.93-4.76A.63.63,0,0,0,26.47,32.28Z"/><path class="cls-1" d="M50,24.05v5c0,1.1-.68,5.47-1.4,6.19,0,0-2.42,3.51-4.7,3.51s-4.69-3.51-4.69-3.51c-.72-.72-1.4-5.09-1.4-6.19v-5a14.3,14.3,0,0,1,6.09-1.23A14.32,14.32,0,0,1,50,24.05Z"/><ellipse class="cls-2" cx="46.85" cy="28.66" rx="1.58" ry="0.54"/><ellipse class="cls-2" cx="41.06" cy="28.54" rx="1.58" ry="0.54"/><path class="cls-3" d="M48.51,32.06l-.74,1.13a1.4,1.4,0,0,1-1.15.72c-.9.1-1.95.14-1.95.14a2.39,2.39,0,0,0-.77-.89,2.47,2.47,0,0,0-.76.89s-1,0-2-.14A1.4,1.4,0,0,1,40,33.19l-.74-1.13h.53c.52.73,1,1.34,1.53,1.25A1.25,1.25,0,0,0,43,32.42a1.32,1.32,0,0,0,1.79,0,1.25,1.25,0,0,0,1.65.89c.5.09,1-.52,1.52-1.25Z"/><path class="cls-3" d="M44.55,36.68l-.45,2.08a1.36,1.36,0,0,1-.2,0l-.28,0h0l-.39-2.07.23-.79L43,35.31a7.4,7.4,0,0,0,1.76,0l-.4.51Z"/><path class="cls-1" d="M43,35.3h0A0,0,0,0,1,43,35.3Z"/><path class="cls-1" d="M44.77,35.3a0,0,0,0,1,0,0Z"/><path class="cls-3" d="M44.57,27.07c1-1.61,4.18-2.21,4.68-.57-1.32-.78-4.08.75-4.29.89S44.22,27.61,44.57,27.07Z"/><path class="cls-3" d="M43.08,27.07c-1-1.61-4.17-2.21-4.68-.57,1.33-.78,4.08.75,4.29.89S43.44,27.61,43.08,27.07Z"/><path class="cls-2" d="M39,28.59c-.59,0-.88-.78-.93-.91C37.8,27.67,38.12,28.8,39,28.59Z"/><path class="cls-2" d="M38.66,28.61a.92.92,0,0,0-.72.4C38,29,38.47,28.66,38.66,28.61Z"/><path class="cls-2" d="M48.76,28.59c.59,0,.88-.78.93-.91C50,27.67,49.67,28.8,48.76,28.59Z"/><path class="cls-2" d="M49.13,28.61a.9.9,0,0,1,.72.4C49.78,29,49.33,28.66,49.13,28.61Z"/><path class="cls-2" d="M40.25,32h0a3.49,3.49,0,0,0,1.51-.64c0-.08.18-.42.38-.5,0,0,.1,0,.09.09s-.16.2-.36.57a0,0,0,0,1,0,0C41.14,32,39.91,32.23,40.25,32Z"/><path class="cls-2" d="M47.43,32h0a3.49,3.49,0,0,1-1.51-.64c0-.08-.18-.42-.38-.5,0,0-.1,0-.09.09s.17.2.36.57c0,0,0,0,0,0C46.55,32,47.77,32.23,47.43,32Z"/><path class="cls-2" d="M48.81,32.17c0,.75-2.45,4.42-2.61,4.55.3.06,3-3.95,2.93-4.75A.61.61,0,0,1,48.81,32.17Z"/><path class="cls-2" d="M39.07,32.28c0,.74,2.46,4.41,2.61,4.55-.29.05-3-4-2.92-4.76A.59.59,0,0,0,39.07,32.28Z"/><path class="cls-1" d="M12.19,24.05v5c0,1.1-.68,5.47-1.4,6.19,0,0-2.42,3.51-4.69,3.51s-4.7-3.51-4.7-3.51C.68,34.55,0,30.18,0,29.08v-5a14.32,14.32,0,0,1,6.1-1.23A14.3,14.3,0,0,1,12.19,24.05Z"/><ellipse class="cls-2" cx="9.04" cy="28.66" rx="1.58" ry="0.54"/><ellipse class="cls-2" cx="3.25" cy="28.54" rx="1.58" ry="0.54"/><path class="cls-3" d="M10.7,32.06,10,33.19a1.4,1.4,0,0,1-1.15.72c-.9.1-1.95.14-1.95.14a2.47,2.47,0,0,0-.76-.89,2.39,2.39,0,0,0-.77.89s-1,0-1.95-.14a1.4,1.4,0,0,1-1.15-.72l-.74-1.13H2c.51.73,1,1.34,1.52,1.25a1.25,1.25,0,0,0,1.65-.89,1.32,1.32,0,0,0,1.79,0,1.25,1.25,0,0,0,1.65.89c.5.09,1-.52,1.53-1.25Z"/><path class="cls-3" d="M6.74,36.68l-.45,2.08-.19,0-.29,0h0l-.39-2.07.24-.79-.47-.59a7.4,7.4,0,0,0,1.76,0l-.4.51Z"/><path class="cls-1" d="M5.18,35.3h0A0,0,0,0,1,5.18,35.3Z"/><path class="cls-1" d="M7,35.3a0,0,0,0,1,0,0Z"/><path class="cls-3" d="M6.76,27.07c1-1.61,4.18-2.21,4.68-.57-1.32-.78-4.08.75-4.29.89S6.41,27.61,6.76,27.07Z"/><path class="cls-3" d="M5.27,27.07c-1-1.61-4.17-2.21-4.68-.57,1.33-.78,4.08.75,4.29.89S5.63,27.61,5.27,27.07Z"/><path class="cls-2" d="M1.22,28.59c-.58,0-.88-.78-.93-.91C0,27.67.31,28.8,1.22,28.59Z"/><path class="cls-2" d="M.85,28.61a.92.92,0,0,0-.72.4C.2,29,.66,28.66.85,28.61Z"/><path class="cls-2" d="M11,28.59c.58,0,.88-.78.93-.91C12.18,27.67,11.86,28.8,11,28.59Z"/><path class="cls-2" d="M11.32,28.61A.89.89,0,0,1,12,29C12,29,11.52,28.66,11.32,28.61Z"/><path class="cls-2" d="M2.44,32h0A3.61,3.61,0,0,0,4,31.34c0-.08.17-.42.37-.5a.07.07,0,0,1,.09.09c0,.13-.16.2-.36.57a0,0,0,0,1,0,0C3.33,32,2.1,32.23,2.44,32Z"/><path class="cls-2" d="M9.62,32h0a3.55,3.55,0,0,1-1.52-.64c0-.08-.18-.42-.38-.5s-.1,0-.08.09.16.2.35.57l0,0C8.74,32,10,32.23,9.62,32Z"/><path class="cls-2" d="M11,32.17c0,.75-2.46,4.42-2.61,4.55.29.06,3-3.95,2.92-4.75A.6.6,0,0,1,11,32.17Z"/><path class="cls-2" d="M1.26,32.28c0,.74,2.46,4.41,2.61,4.55-.29.05-3-4-2.92-4.76A.59.59,0,0,0,1.26,32.28Z"/></g></g></svg>