<svg xmlns="http://www.w3.org/2000/svg" viewBox="0 0 50 50"><defs><style>.cls-1{fill:#782b90;}.cls-2{fill:#ee2956;}.cls-3{fill:#f9c915;}</style></defs><title>Artboard 7</title><g id="Isolation_Mode" data-name="Isolation Mode"><path class="cls-1" d="M16.5,24.66l-.49.06a1.6,1.6,0,0,0-.2-.65,1.44,1.44,0,0,0-.38-.46,1.71,1.71,0,0,0-.54-.27,2.39,2.39,0,0,0-.66-.09,1.7,1.7,0,0,0-.87.19A.62.62,0,0,0,13,24a.5.5,0,0,0,.16.39,1.18,1.18,0,0,0,.43.24,3.75,3.75,0,0,0,.6.15l.69.12c.23,0,.46.11.68.18a2.09,2.09,0,0,1,.6.29,1.39,1.39,0,0,1,.43.47,1.61,1.61,0,0,1,.16.73,1.81,1.81,0,0,1-.15.76,1.38,1.38,0,0,1-.43.53,1.84,1.84,0,0,1-.66.31,3.28,3.28,0,0,1-.86.1,2.9,2.9,0,0,1-.83-.1,2.28,2.28,0,0,1-.63-.29.45.45,0,0,0-.25-.09s-.09,0-.16.11a.69.69,0,0,0-.17.26h-.49v-2l.48,0a1.5,1.5,0,0,0,.19.63,1.43,1.43,0,0,0,.4.48,1.91,1.91,0,0,0,.6.32,2.65,2.65,0,0,0,.77.11,1.59,1.59,0,0,0,.95-.24.9.9,0,0,0,.33-.77.39.39,0,0,0-.11-.28.71.71,0,0,0-.27-.2,2.09,2.09,0,0,0-.4-.12A3.41,3.41,0,0,0,14.6,26l-.52-.09a3.88,3.88,0,0,1-.49-.11,3.67,3.67,0,0,1-.59-.21,1.52,1.52,0,0,1-.45-.32,1.3,1.3,0,0,1-.27-.46,1.76,1.76,0,0,1-.1-.64,1.71,1.71,0,0,1,.09-.55,1.27,1.27,0,0,1,.32-.48,1.71,1.71,0,0,1,.58-.34,2.79,2.79,0,0,1,.88-.12,3.15,3.15,0,0,1,.82.09,2.69,2.69,0,0,1,.59.23.6.6,0,0,0,.27.09.35.35,0,0,0,.2-.09,1,1,0,0,0,.17-.21h.4Z"/><path class="cls-1" d="M20.26,22.66a3.81,3.81,0,0,1,1.08.14,2.2,2.2,0,0,1,.86.48,2.26,2.26,0,0,1,.56.87,3.67,3.67,0,0,1,.2,1.32,3.6,3.6,0,0,1-.17,1.17,2.42,2.42,0,0,1-.52.88,2.28,2.28,0,0,1-.89.57,3.31,3.31,0,0,1-1.23.2,3.65,3.65,0,0,1-1.07-.14,2.15,2.15,0,0,1-.86-.45,2.31,2.31,0,0,1-.57-.84,3.39,3.39,0,0,1-.2-1.27,4.19,4.19,0,0,1,.16-1.22,2.33,2.33,0,0,1,.5-.93,2.22,2.22,0,0,1,.87-.58A3.51,3.51,0,0,1,20.26,22.66Zm0,.59a2.05,2.05,0,0,0-.78.14,1.31,1.31,0,0,0-.53.39,1.72,1.72,0,0,0-.31.62,3.6,3.6,0,0,0-.1.85,5.57,5.57,0,0,0,.11,1.2,2.09,2.09,0,0,0,.32.75,1,1,0,0,0,.49.37,1.73,1.73,0,0,0,.66.11,2.14,2.14,0,0,0,.81-.14,1.26,1.26,0,0,0,.52-.42,1.64,1.64,0,0,0,.28-.67,4.31,4.31,0,0,0,.09-.93,4.91,4.91,0,0,0-.11-1.12,1.85,1.85,0,0,0-.32-.69,1.08,1.08,0,0,0-.49-.36A2.1,2.1,0,0,0,20.29,23.25Z"/><path class="cls-1" d="M29.71,23.19c-.43,0-.64.12-.64.34v4.65H27.72L25,23.81v3.62c0,.22.22.33.65.33v.42h-1.9v-.42c.43,0,.65-.11.65-.34V23.53c0-.22-.22-.34-.65-.34v-.42h2l2.79,4.47V23.53c0-.22-.21-.34-.65-.34v-.42h1.9Z"/><path class="cls-1" d="M35.88,23.2a1.09,1.09,0,0,0-.4.06.34.34,0,0,0-.21.15l-1.65,2.43v1.58c0,.23.24.34.73.34v.42H31.78v-.42c.48,0,.72-.11.72-.34V25.84l-1.6-2.43a.41.41,0,0,0-.22-.17,1.23,1.23,0,0,0-.35,0v-.42H33v.42h-.58q-.21,0-.21.15a.22.22,0,0,0,0,.1l1.18,1.87,1.2-1.84a.36.36,0,0,0,0-.1c0-.12-.1-.18-.29-.18H34v-.42h1.88Z"/><path class="cls-2" d="M13.12,22.35l-.49.06a1.6,1.6,0,0,0-.2-.65,1.44,1.44,0,0,0-.38-.46,1.71,1.71,0,0,0-.54-.27,2.34,2.34,0,0,0-.66-.09,1.82,1.82,0,0,0-.87.18.62.62,0,0,0-.34.59.5.5,0,0,0,.16.39,1.18,1.18,0,0,0,.43.24,3.75,3.75,0,0,0,.6.15l.69.12c.23.05.46.11.68.18a2.29,2.29,0,0,1,.61.29,1.47,1.47,0,0,1,.42.47,1.58,1.58,0,0,1,.16.73,1.73,1.73,0,0,1-.15.75,1.34,1.34,0,0,1-.43.54,1.84,1.84,0,0,1-.66.31,3.28,3.28,0,0,1-.86.1,2.9,2.9,0,0,1-.83-.1,2.28,2.28,0,0,1-.63-.29.45.45,0,0,0-.25-.09s-.09,0-.16.11a.74.74,0,0,0-.17.25H8.76v-2l.48,0a1.5,1.5,0,0,0,.19.63,1.43,1.43,0,0,0,.4.48,1.91,1.91,0,0,0,.6.32,2.65,2.65,0,0,0,.77.11,1.59,1.59,0,0,0,1-.24.9.9,0,0,0,.33-.77.43.43,0,0,0-.1-.28.75.75,0,0,0-.28-.2,2.09,2.09,0,0,0-.4-.12l-.48-.1-.52-.08a3.88,3.88,0,0,1-.49-.11,3.67,3.67,0,0,1-.59-.21,1.52,1.52,0,0,1-.45-.32,1.4,1.4,0,0,1-.27-.46,1.76,1.76,0,0,1-.1-.64,1.71,1.71,0,0,1,.09-.55,1.27,1.27,0,0,1,.32-.48,1.71,1.71,0,0,1,.58-.34,2.79,2.79,0,0,1,.88-.12,3.15,3.15,0,0,1,.82.09,2.69,2.69,0,0,1,.59.23.6.6,0,0,0,.27.09.35.35,0,0,0,.2-.09,1.24,1.24,0,0,0,.18-.22h.39Z"/><path class="cls-2" d="M16.88,20.35a3.81,3.81,0,0,1,1.08.14,2.2,2.2,0,0,1,.86.48,2.15,2.15,0,0,1,.56.87,4.29,4.29,0,0,1,0,2.49,2.42,2.42,0,0,1-.52.88,2.28,2.28,0,0,1-.89.57,3.52,3.52,0,0,1-1.23.2,3.65,3.65,0,0,1-1.07-.14,2.15,2.15,0,0,1-.86-.45,2.31,2.31,0,0,1-.57-.84,3.42,3.42,0,0,1-.2-1.27,4.15,4.15,0,0,1,.16-1.22,2.33,2.33,0,0,1,.5-.93,2.22,2.22,0,0,1,.87-.58A3.51,3.51,0,0,1,16.88,20.35Zm0,.59a2.05,2.05,0,0,0-.78.14,1.38,1.38,0,0,0-.53.39,1.72,1.72,0,0,0-.31.62,3.6,3.6,0,0,0-.1.85,5.57,5.57,0,0,0,.11,1.2,2.09,2.09,0,0,0,.32.75,1,1,0,0,0,.49.37,1.94,1.94,0,0,0,.66.11,2.14,2.14,0,0,0,.81-.14,1.34,1.34,0,0,0,.52-.42,1.7,1.7,0,0,0,.28-.67,4.31,4.31,0,0,0,.09-.93,4.91,4.91,0,0,0-.11-1.12A1.85,1.85,0,0,0,18,21.4a1.08,1.08,0,0,0-.49-.36A2.1,2.1,0,0,0,16.91,20.94Z"/><path class="cls-2" d="M26.33,20.88c-.43,0-.64.12-.64.34v4.64H24.34L21.59,21.5v3.61c0,.23.22.34.65.34v.41h-1.9v-.41c.43,0,.65-.11.65-.34V21.22c0-.22-.22-.34-.65-.34v-.43h1.95l2.79,4.48V21.22c0-.22-.21-.34-.65-.34v-.43h1.9Z"/><path class="cls-2" d="M32.5,20.89a1.09,1.09,0,0,0-.4.06.34.34,0,0,0-.21.15l-1.65,2.43v1.58c0,.23.24.34.73.34v.41H28.4v-.41c.48,0,.72-.11.72-.34V23.53l-1.6-2.43a.41.41,0,0,0-.22-.17,1.23,1.23,0,0,0-.35-.05v-.43h2.67v.43H29q-.21,0-.21.15a.22.22,0,0,0,0,.1L30,23l1.2-1.84a.36.36,0,0,0,0-.1c0-.12-.09-.18-.29-.18h-.35v-.43H32.5Z"/><path class="cls-3" d="M9.74,19.78l-.49.07a1.6,1.6,0,0,0-.2-.65,1.44,1.44,0,0,0-.38-.46,1.71,1.71,0,0,0-.54-.27,2.34,2.34,0,0,0-.66-.09,1.82,1.82,0,0,0-.87.18.63.63,0,0,0-.34.59.5.5,0,0,0,.16.39,1.17,1.17,0,0,0,.43.23,2.92,2.92,0,0,0,.6.15l.69.13c.23.05.46.11.68.18a2,2,0,0,1,.61.29,1.47,1.47,0,0,1,.42.47,1.53,1.53,0,0,1,.16.72,1.75,1.75,0,0,1-.15.76,1.31,1.31,0,0,1-.43.53,1.7,1.7,0,0,1-.66.32,3.76,3.76,0,0,1-.86.1,2.88,2.88,0,0,1-.83-.11A2.27,2.27,0,0,1,6.45,23a.45.45,0,0,0-.25-.09A.29.29,0,0,0,6,23a.78.78,0,0,0-.17.26H5.38v-2l.48,0a1.5,1.5,0,0,0,.19.64,1.43,1.43,0,0,0,.4.48,1.71,1.71,0,0,0,.6.31,2.35,2.35,0,0,0,.77.12,1.52,1.52,0,0,0,.95-.25.87.87,0,0,0,.33-.76.48.48,0,0,0-.1-.29.86.86,0,0,0-.28-.19,3.14,3.14,0,0,0-.4-.13l-.48-.09L7.32,21l-.49-.11a2.9,2.9,0,0,1-.59-.22,1.5,1.5,0,0,1-.45-.31,1.4,1.4,0,0,1-.27-.46,1.76,1.76,0,0,1-.1-.64,1.71,1.71,0,0,1,.09-.55,1.27,1.27,0,0,1,.32-.48,1.56,1.56,0,0,1,.58-.34,2.51,2.51,0,0,1,.88-.13,3.15,3.15,0,0,1,.82.09,2.27,2.27,0,0,1,.59.24A.6.6,0,0,0,9,18.2a.31.31,0,0,0,.2-.1.91.91,0,0,0,.18-.21h.39Z"/><path class="cls-3" d="M13.5,17.78a3.76,3.76,0,0,1,1.08.15,2.07,2.07,0,0,1,.86.47,2.34,2.34,0,0,1,.56.87,3.69,3.69,0,0,1,.2,1.33A3.49,3.49,0,0,1,16,21.76a2.27,2.27,0,0,1-.53.89,2.17,2.17,0,0,1-.88.57,3.52,3.52,0,0,1-1.23.2,4,4,0,0,1-1.07-.14,2,2,0,0,1-.86-.46,2.19,2.19,0,0,1-.57-.83,3.43,3.43,0,0,1-.21-1.28,4.49,4.49,0,0,1,.16-1.21,2.4,2.4,0,0,1,.51-.93,2.22,2.22,0,0,1,.87-.58A3.5,3.5,0,0,1,13.5,17.78Zm0,.6a2.06,2.06,0,0,0-.78.13,1.31,1.31,0,0,0-.53.39,1.69,1.69,0,0,0-.31.63,3.58,3.58,0,0,0-.1.84,5.61,5.61,0,0,0,.11,1.21,2,2,0,0,0,.32.74,1,1,0,0,0,.49.38,1.9,1.9,0,0,0,.66.11,2,2,0,0,0,.8-.14,1.31,1.31,0,0,0,.53-.42,1.83,1.83,0,0,0,.28-.68,4.31,4.31,0,0,0,.09-.93A4.82,4.82,0,0,0,15,19.53a1.85,1.85,0,0,0-.32-.69,1.14,1.14,0,0,0-.49-.36A1.87,1.87,0,0,0,13.53,18.38Z"/><path class="cls-3" d="M23,18.32c-.44,0-.65.11-.65.34V23.3H21l-2.75-4.36v3.61c0,.23.22.34.65.34v.41H17v-.41c.43,0,.65-.12.65-.34V18.66c0-.23-.22-.34-.65-.34v-.43h1.95l2.79,4.47v-3.7c0-.23-.21-.34-.65-.34v-.43H23Z"/><path class="cls-3" d="M29.12,18.33a1.4,1.4,0,0,0-.4.05.44.44,0,0,0-.21.15L26.86,21v1.58c0,.22.24.34.73.34v.41H25v-.41c.48,0,.72-.12.72-.34V21l-1.6-2.43a.41.41,0,0,0-.22-.17,1.23,1.23,0,0,0-.35-.05v-.43h2.67v.43h-.58q-.21,0-.21.15a.22.22,0,0,0,0,.1l1.18,1.87,1.2-1.84a.44.44,0,0,0,0-.1c0-.12-.09-.18-.29-.18h-.35v-.43h1.88Z"/><path class="cls-3" d="M6,16.9H5.31V14H6c.86,0,1.18.45,1.18,1.42S6.92,16.9,6,16.9Zm0-2.43H5.86v2h.23c.47,0,.56-.33.56-1S6.51,14.47,6,14.47Z"/><path class="cls-3" d="M7.91,16.9v-.44H8.6V15.09H8v-.41H9.14v1.78h.68v.44Zm1-2.51-.4-.4.4-.39.39.39Z"/><path class="cls-3" d="M11,16c0,.44.27.49.59.49a5.26,5.26,0,0,0,.64-.06l.07.42a2.77,2.77,0,0,1-.77.1c-.66,0-1.08-.24-1.08-1.11s.39-1.2,1-1.2.84.47.84,1.16V16Zm.42-.94c-.24,0-.38.17-.41.56h.75C11.71,15.22,11.6,15.05,11.37,15.05Z"/><path class="cls-2" d="M12.87,31.3h-.19v.9h-.56V29.33h1a.85.85,0,0,1,.93,1C14,30.85,13.7,31.3,12.87,31.3Zm.1-1.53h-.29v1.1h.22c.44,0,.54-.21.54-.55S13.37,29.77,13,29.77Z"/><path class="cls-2" d="M14.69,32.2v-.44h.7V30.39h-.65V30h1.19v1.78h.68v.44Zm1-2.51-.39-.4.39-.39.4.39Z"/><path class="cls-2" d="M18.91,30.49a1.36,1.36,0,0,0-.56-.12c-.33,0-.6.2-.6.71s.14.72.71.72a2.38,2.38,0,0,0,.51-.06l.07.41a2.25,2.25,0,0,1-.65.08c-.87,0-1.2-.33-1.2-1.15a1.07,1.07,0,0,1,1.15-1.15,1.3,1.3,0,0,1,.72.17Z"/><path class="cls-2" d="M21.05,32.24c-.42,0-.92,0-.92-.69V30.39h-.47V30h.47v-.45h.54V30h.95v.41h-.95v1.13c0,.22.14.26.38.26a3.57,3.57,0,0,0,.58-.06l.06.41A2.14,2.14,0,0,1,21.05,32.24Z"/><path class="cls-2" d="M23.61,32.2V32a.93.93,0,0,1-.63.29c-.67,0-.66-.41-.66-.87V30h.53v1.35c0,.32,0,.45.3.45a.89.89,0,0,0,.46-.18V30h.54V32.2Z"/><path class="cls-2" d="M26.8,30.48a1.12,1.12,0,0,0-.38-.07.75.75,0,0,0-.53.23v1.12h.76v.44H24.82v-.44h.53V30.39h-.52V30h1.06v.29a.76.76,0,0,1,.65-.33.93.93,0,0,1,.37.08Z"/><path class="cls-2" d="M28,31.29c0,.44.28.49.59.49a4.92,4.92,0,0,0,.64-.06l.07.41a2.66,2.66,0,0,1-.77.1c-.65,0-1.07-.23-1.07-1.1s.39-1.2,1-1.2.85.47.85,1.16v.2Zm.42-.95c-.24,0-.38.17-.4.57h.75C28.72,30.52,28.6,30.34,28.37,30.34Z"/><path class="cls-2" d="M30.78,32.23a2.52,2.52,0,0,1-.79-.09l.07-.42a3.56,3.56,0,0,0,.67.08c.34,0,.54-.06.54-.22,0-.36-1.24-.14-1.24-1,0-.46.47-.66.93-.66a2.11,2.11,0,0,1,.73.12l-.11.4a2.25,2.25,0,0,0-.61-.08c-.25,0-.4.07-.4.21,0,.38,1.23.21,1.23,1C31.8,32.11,31.15,32.23,30.78,32.23Z"/><path class="cls-1" d="M12.16,36.36V33.49H13.9v.44H12.72v.78h1.12v.41H12.72v.8h1.2v.44Z"/><path class="cls-1" d="M16,36.36V35c0-.33,0-.45-.3-.45a.79.79,0,0,0-.46.17v1.63h-.54V34.14h.54v.24a.84.84,0,0,1,.63-.3c.68,0,.66.42.66.87v1.41Z"/><path class="cls-1" d="M18.5,36.4c-.42,0-.92,0-.92-.69V34.55h-.47v-.41h.47v-.45h.53v.45h.95v.41h-.95v1.14c0,.21.14.25.38.25a3.71,3.71,0,0,0,.59-.06l.06.41A2.2,2.2,0,0,1,18.5,36.4Z"/><path class="cls-1" d="M20.29,35.45c0,.44.27.49.59.49a5.26,5.26,0,0,0,.64-.06l.07.41a2.74,2.74,0,0,1-.77.11c-.66,0-1.08-.24-1.08-1.11s.39-1.2,1-1.2.84.47.84,1.16v.2Zm.42-1c-.24,0-.39.17-.41.57h.75C21.05,34.68,20.94,34.5,20.71,34.5Z"/><path class="cls-1" d="M24.24,34.64a1.11,1.11,0,0,0-.37-.07.71.71,0,0,0-.53.23v1.12h.76v.44H22.26v-.44h.54V34.55h-.53v-.41h1.07v.3A.72.72,0,0,1,24,34.1a.88.88,0,0,1,.37.08Z"/><path class="cls-1" d="M26.17,36.4c-.43,0-.93,0-.93-.69V34.55h-.47v-.41h.47v-.45h.54v.45h.95v.41h-.95v1.14c0,.21.14.25.38.25a3.57,3.57,0,0,0,.58-.06l.06.41A2.13,2.13,0,0,1,26.17,36.4Z"/><path class="cls-1" d="M29.32,36.38c-.26,0-.59,0-.65-.25a.75.75,0,0,1-.58.26c-.45,0-.7-.21-.7-.64s.5-.66.91-.66h.32v-.23c0-.25-.14-.3-.46-.3a2.17,2.17,0,0,0-.54.09l-.1-.41a2.13,2.13,0,0,1,.74-.14c.46,0,.9.06.9.64v1.1c0,.1.07.13.18.14Zm-.7-1h-.29c-.36,0-.41.16-.41.3a.23.23,0,0,0,.26.26,1,1,0,0,0,.44-.14Z"/><path class="cls-1" d="M30,36.36v-.44h.7V34.55h-.65v-.41h1.19v1.78h.68v.44Zm1-2.51-.39-.4.39-.39.4.39Z"/><path class="cls-1" d="M33.84,36.36V35c0-.33,0-.45-.3-.45a.79.79,0,0,0-.46.17v1.63h-.54V34.14h.54v.24a.84.84,0,0,1,.63-.3c.67,0,.66.42.66.87v1.41Z"/><path class="cls-1" d="M36.58,36.36V34.84c0-.25,0-.39-.16-.39a.29.29,0,0,0-.2.12,1.93,1.93,0,0,1,0,.24v1.55h-.44V34.79c0-.19,0-.35-.15-.35s-.17.1-.21.16v1.76H35V34.14h.44v.23a.46.46,0,0,1,.4-.28.33.33,0,0,1,.35.28.46.46,0,0,1,.4-.28c.41,0,.45.26.45.67v1.6Z"/><path class="cls-1" d="M38.17,35.45c0,.44.28.49.59.49a4.92,4.92,0,0,0,.64-.06l.07.41a2.63,2.63,0,0,1-.77.11c-.65,0-1.07-.24-1.07-1.11s.39-1.2,1-1.2.84.47.84,1.16v.2Zm.42-1c-.24,0-.38.17-.4.57h.75C38.94,34.68,38.82,34.5,38.59,34.5Z"/><path class="cls-1" d="M41.5,36.36V35c0-.33,0-.45-.3-.45a.82.82,0,0,0-.46.17v1.63H40.2V34.14h.54v.24a.86.86,0,0,1,.63-.3c.68,0,.67.42.67.87v1.41Z"/><path class="cls-1" d="M44.05,36.4c-.42,0-.92,0-.92-.69V34.55h-.47v-.41h.47v-.45h.54v.45h.94v.41h-.94v1.14c0,.21.13.25.37.25a3.58,3.58,0,0,0,.59-.06l.06.41A2.2,2.2,0,0,1,44.05,36.4Z"/></g></svg>