<svg xmlns="http://www.w3.org/2000/svg" viewBox="0 0 200 43.88"><defs><style>.cls-1{fill:#f9c915;}.cls-2{fill:#ee2956;}.cls-3{fill:#782b90;}</style></defs><title>Artboard 4</title><g id="Isolation_Mode" data-name="Isolation Mode"><path class="cls-1" d="M51,38.54c-4.82,0-7.72-4.12-7.72-9.81s2.9-9.81,7.72-9.81c2.67,0,5.16,1.8,6.73,3.77l3-3.31a13,13,0,0,0-10.45-5.8,12.45,12.45,0,0,0-11.43,7.29l-1.12-3.53a1.36,1.36,0,0,0-2.5-.23l-.56,1.05c-1.45-2.84-3.66-4.58-6.91-4.58-3.59,0-6.34,2.1-8.07,5.42V0H14.16V17H5.57V0H0V43.24H5.57V22.52h8.59V43.24h5.57V38.46c1.73,3.32,4.48,5.42,8.07,5.42,3.25,0,5.46-1.74,6.91-4.59l.56,1.06a1.36,1.36,0,0,0,2.5-.23l1.12-3.53a12.46,12.46,0,0,0,11.43,7.29,12.77,12.77,0,0,0,10.39-5.81l-3-3.31C56.06,36.74,53.8,38.54,51,38.54Zm-22.41.17c-3.36,0-4.75-4.47-4.75-10s1.39-10,4.75-10,4.71,4.47,4.71,10S31.92,38.71,28.61,38.71Z"/><path class="cls-2" d="M115.09,38.31V14.22H93.79V3.72H88.22v10.5H81.08L69.7,26.87V0H64.13V43.24H69.7V30l12,13.29h7.43L75.51,28.38l8.32-9.23h4.39V32.33c0,7.43,3.36,10.91,9.17,10.91h24.2V38.31Zm-5.57,0H103c-1.53.08-9.23-1.4-9.23-6.1V19.15h15.73Z"/><path class="cls-2" d="M112.31,0a3.59,3.59,0,0,0-3.54,3.54,3.54,3.54,0,0,0,7.07,0A3.59,3.59,0,0,0,112.31,0Z"/><path class="cls-3" d="M150.61,0a3.59,3.59,0,0,0-3.54,3.54,3.54,3.54,0,0,0,7.08,0A3.59,3.59,0,0,0,150.61,0Z"/><path class="cls-3" d="M194.14,13.58a5.69,5.69,0,0,0-4.29,2.21,5.15,5.15,0,0,0-4.3-2.21,5.89,5.89,0,0,0-4.7,2.73l-.66-1.57-2.3-.52a38.71,38.71,0,0,0-8.07-.7c-5.75,0-10.1,3.54-10.1,8.65,0,10,14.69,8.18,14.69,13.18,0,2.43-2.27,3.48-5.23,3.48-2.49,0-5.29-.65-9.28-.52h-6.5V14.22H138.54l-7.08,18-7.08-18h-5.92l12,29.66h2.09l10-24.73h5.36V38.31h-6.51v4.93H159.9s7.46.3,10.3.2c3.11-.11,5.86-.94,7.69-2.66v2.46h4.93V20.84a2,2,0,0,1,1.86-2.09c1,0,1.8.93,1.8,2.43V43.24h4.93V20.84a2,2,0,0,1,1.8-2.09c1,0,1.86.93,1.86,2.43V43.24H200V20.72C200,16.37,197.51,13.58,194.14,13.58Zm-28.55,8.19c0-1.86,1.62-3.25,4.75-3.25,2.38,0,4.88,1.16,7.55,2.61v8.14C173.73,25.48,165.59,25.26,165.59,21.77Z"/></g></svg>